<?xml version="1.0" encoding="utf-8"?><svg viewBox="0 0 32 33" xmlns="http://www.w3.org/2000/svg" xmlns:xlink="http://www.w3.org/1999/xlink"><style>:root>svg{display:none}:root>svg:target{display:block}</style><svg fill="none" viewBox="0 0 16 16" id="arrow" xmlns="http://www.w3.org/2000/svg"><path fill-rule="evenodd" clip-rule="evenodd" d="M0 8a1 1 0 011-1h14a1 1 0 110 2H1a1 1 0 01-1-1z" fill="#124F48"/><path fill-rule="evenodd" clip-rule="evenodd" d="M7.293.293a1 1 0 011.414 0l7 7a1 1 0 010 1.414l-7 7a1 1 0 01-1.414-1.414L13.586 8 7.293 1.707a1 1 0 010-1.414z" fill="#124F48"/></svg><svg fill="none" viewBox="0 0 16 16" id="arrow-white" xmlns="http://www.w3.org/2000/svg"><path fill-rule="evenodd" clip-rule="evenodd" d="M0 8a1 1 0 011-1h14a1 1 0 110 2H1a1 1 0 01-1-1z" fill="#fff"/><path fill-rule="evenodd" clip-rule="evenodd" d="M7.293.293a1 1 0 011.414 0l7 7a1 1 0 010 1.414l-7 7a1 1 0 01-1.414-1.414L13.586 8 7.293 1.707a1 1 0 010-1.414z" fill="#fff"/></svg><svg fill="none" viewBox="0 0 23 22" id="bag" xmlns="http://www.w3.org/2000/svg"><path d="M20.298 5.323h-3.3v-2.21c0-1.22-.986-2.211-2.2-2.211h-6.6c-1.213 0-2.2.991-2.2 2.21v2.21h-3.3c-1.213 0-2.2.992-2.2 2.211v3.316h22V7.533c0-1.219-.986-2.21-2.2-2.21zm-12.1-2.21h6.6v2.21h-6.6v-2.21zm5.5 11.052h-4.4v-2.21h-8.8v7.736c0 1.22.987 2.21 2.2 2.21h17.6c1.214 0 2.2-.99 2.2-2.21v-7.737h-8.8v2.21z" fill="#fff"/></svg><svg fill="none" viewBox="0 0 32 25" id="card" xmlns="http://www.w3.org/2000/svg"><path d="M5 0h21.667a5 5 0 015 5v15a5 5 0 01-5 5H5a5 5 0 01-5-5V5a5 5 0 015-5zm0 1.667A3.333 3.333 0 001.667 5v1.667H30V5a3.333 3.333 0 00-3.333-3.333H5zM1.667 20A3.333 3.333 0 005 23.333h21.667A3.333 3.333 0 0030 20v-8.333H1.667V20zM5 18.333h6.667V20H5v-1.667zm10 0h5V20h-5v-1.667zm-13.333-10V10H30V8.333H1.667z" fill="#124F48"/><path d="M5 0h21.667a5 5 0 015 5v15a5 5 0 01-5 5H5a5 5 0 01-5-5V5a5 5 0 015-5zm0 1.667A3.333 3.333 0 001.667 5v1.667H30V5a3.333 3.333 0 00-3.333-3.333H5zM1.667 20A3.333 3.333 0 005 23.333h21.667A3.333 3.333 0 0030 20v-8.333H1.667V20zM5 18.333h6.667V20H5v-1.667zm10 0h5V20h-5v-1.667zm-13.333-10V10H30V8.333H1.667z"/></svg><svg fill="none" viewBox="0 0 17 31" id="clip" xmlns="http://www.w3.org/2000/svg"><path d="M16.238 7.381v15.5A8.114 8.114 0 018.12 31 8.114 8.114 0 010 22.881V5.905A5.903 5.903 0 015.905 0a5.903 5.903 0 015.904 5.905v15.5a3.69 3.69 0 01-7.38 0V7.38h1.476v14.024a2.214 2.214 0 004.428 0v-15.5a4.429 4.429 0 10-8.857 0V22.88a6.643 6.643 0 0013.286 0v-15.5h1.476z" fill="#F90"/></svg><svg fill="none" viewBox="0 0 16 20" id="coins" xmlns="http://www.w3.org/2000/svg"><path d="M16 4c0-2.168-3.663-4-8-4S0 1.832 0 4v2c0 2.168 3.663 4 8 4s8-1.832 8-4V4zM8 17c-4.337 0-8-1.832-8-4v3c0 2.168 3.663 4 8 4s8-1.832 8-4v-3c0 2.168-3.663 4-8 4z" fill="#fff"/><path d="M16 8c0 2.168-3.663 4-8 4s-8-1.832-8-4v3c0 2.168 3.663 4 8 4s8-1.832 8-4V8z" fill="#fff"/></svg><svg fill="none" viewBox="0 0 30 30" id="diagram" xmlns="http://www.w3.org/2000/svg"><path d="M15.79 0h1.578A12.632 12.632 0 0130 12.632v1.579H15.79V0zm1.578 12.632h11.053A11.053 11.053 0 0017.368 1.579v11.053zm-4.736 4.736h12.631A12.632 12.632 0 1112.632 4.737v12.631zm-1.58 1.58V6.425a11.056 11.056 0 001.58 21.995 11.054 11.054 0 0010.942-9.474H11.053z" fill="#FF6107"/></svg><svg fill="none" viewBox="0 0 18 18" id="facebook" xmlns="http://www.w3.org/2000/svg"><path d="M9 0a9 9 0 100 18A9 9 0 109 0zm2.132 6.22H9.779c-.16 0-.338.21-.338.49v.978h1.692l-.256 1.393H9.44v4.182H7.844V9.08H6.396V7.688h1.448v-.82c0-1.176.816-2.13 1.935-2.13h1.353v1.481z" fill="#fff"/></svg><svg fill="none" viewBox="0 0 25 25" id="graph" xmlns="http://www.w3.org/2000/svg"><path d="M22.222 25A2.78 2.78 0 0025 22.222V2.778A2.78 2.78 0 0022.222 0H2.778A2.78 2.78 0 000 2.778v19.444A2.78 2.78 0 002.778 25h19.444zM9.102 9.247l5.555 2.778 2.157-4.313 2.485 1.244-3.399 6.798-5.556-2.778-2.156 4.313-2.485-1.243L9.1 9.247z" fill="#fff"/></svg><svg fill="none" viewBox="0 0 18 18" id="instagram" xmlns="http://www.w3.org/2000/svg"><path d="M11.813 9a2.812 2.812 0 11-5.626 0c0-.16.017-.317.046-.469H5.25v3.747c0 .261.21.472.472.472h6.557a.471.471 0 00.471-.472V8.531h-.983c.029.152.046.309.046.469zM9 10.875a1.876 1.876 0 10-.001-3.753A1.876 1.876 0 009 10.875zm2.25-3.844h1.124a.282.282 0 00.282-.281V5.626a.282.282 0 00-.282-.282H11.25a.282.282 0 00-.282.282V6.75a.284.284 0 00.282.281zM9 0a9 9 0 100 18A9 9 0 009 0zm4.688 12.646c0 .573-.47 1.041-1.042 1.041H5.354a1.045 1.045 0 01-1.042-1.041V5.354c0-.573.47-1.042 1.042-1.042h7.292c.573 0 1.041.47 1.041 1.042v7.292z" fill="#fff"/></svg><svg fill="none" viewBox="0 0 18 18" id="linkedin" xmlns="http://www.w3.org/2000/svg"><path d="M9 0a9 9 0 100 18A9 9 0 109 0zM6.797 12.73H4.974V6.865h1.823v5.865zm-.923-6.585c-.575 0-.947-.407-.947-.912 0-.515.383-.91.97-.91.589 0 .949.395.96.91 0 .505-.371.912-.983.912zm7.58 6.585H11.63V9.48c0-.757-.265-1.27-.924-1.27-.503 0-.802.347-.934.682-.05.12-.061.288-.061.456v3.381H7.888V8.736c0-.733-.023-1.345-.048-1.872h1.584l.083.815h.037c.24-.382.828-.947 1.811-.947 1.2 0 2.098.804 2.098 2.53v3.468z" fill="#fff"/></svg><svg fill="none" viewBox="0 0 23 33" id="logo" xmlns="http://www.w3.org/2000/svg"><path d="M8 33h11a4 4 0 004-4V3a3 3 0 00-3-3h-9a3 3 0 00-3 3v30z" fill="#124F48"/><path d="M17 8a3 3 0 00-3-3H3a3 3 0 00-3 3v20h15a2 2 0 002-2V8z" fill="#FF823B"/><path d="M14 16.5a5.5 5.5 0 10-11 0 5.5 5.5 0 0011 0z" fill="#124F48"/></svg><svg fill="none" viewBox="0 0 11 13" id="play" xmlns="http://www.w3.org/2000/svg"><path d="M10.5 5.634a1 1 0 010 1.732l-8.25 4.763a1 1 0 01-1.5-.866V1.737A1 1 0 012.25.87l8.25 4.763z" fill="#FF823B"/></svg><svg fill="none" viewBox="0 0 18 18" id="skype" xmlns="http://www.w3.org/2000/svg"><path d="M11.029 8.861a3.259 3.259 0 00-.789-.37 10.37 10.37 0 00-1.019-.275c-.213-.049-.425-.103-.636-.161a1.903 1.903 0 01-.372-.148.834.834 0 01-.274-.215.431.431 0 01-.092-.276c0-.177.094-.325.286-.454.199-.134.468-.202.798-.202.356 0 .615.06.77.181.159.125.297.302.412.527.1.176.188.298.275.375.093.085.226.129.397.129a.62.62 0 00.473-.204.655.655 0 00.19-.457c0-.177-.05-.36-.145-.54a1.697 1.697 0 00-.447-.519 2.33 2.33 0 00-.76-.39 3.534 3.534 0 00-1.075-.146c-.516 0-.97.073-1.353.22-.387.147-.688.363-.895.64a1.566 1.566 0 00-.313.959c0 .375.1.693.298.948.194.252.462.452.792.598.324.14.73.265 1.208.37.35.076.636.149.845.216.2.064.366.158.492.279a.593.593 0 01.177.45c0 .237-.111.43-.34.592-.235.165-.548.248-.928.248-.278 0-.502-.04-.67-.123a1.028 1.028 0 01-.386-.306 2.404 2.404 0 01-.264-.483 1.09 1.09 0 00-.271-.407.59.59 0 00-.405-.144.671.671 0 00-.482.182.608.608 0 00-.192.45c0 .276.1.566.295.854.194.29.45.523.76.694.433.236.988.355 1.65.355.55 0 1.034-.088 1.44-.26.407-.174.722-.42.935-.73.214-.31.326-.68.323-1.058 0-.326-.063-.607-.188-.835a1.608 1.608 0 00-.52-.564zM9 0a9 9 0 100 18A9 9 0 109 0zm2.157 14.04c-.456 0-.887-.118-1.264-.327-.278.054-.56.08-.843.08-2.544 0-4.607-2.124-4.607-4.74 0-.329.033-.647.094-.955a2.782 2.782 0 01-.368-1.388c0-1.518 1.196-2.75 2.673-2.75.522 0 1.009.155 1.421.422.255-.046.52-.07.787-.07 2.545 0 4.607 2.123 4.607 4.741 0 .348-.036.689-.105 1.017.177.368.277.782.277 1.221 0 1.517-1.196 2.748-2.672 2.748z" fill="#fff"/></svg><svg fill="none" viewBox="0 0 23 23" id="stats" xmlns="http://www.w3.org/2000/svg"><path d="M5.084 22.724H1.61c-.64 0-1.158-.519-1.158-1.158v-9.263c0-.64.518-1.158 1.158-1.158h3.474c.64 0 1.158.519 1.158 1.158v9.263c0 .639-.518 1.158-1.158 1.158zm8.105 0H9.715c-.64 0-1.157-.519-1.157-1.158V1.882c0-.64.517-1.158 1.157-1.158h3.474c.64 0 1.158.518 1.158 1.158v19.684c0 .639-.518 1.158-1.158 1.158zm8.105 0h-3.473c-.64 0-1.158-.519-1.158-1.158V8.829c0-.64.517-1.158 1.158-1.158h3.473c.64 0 1.158.519 1.158 1.158v12.737c0 .639-.517 1.158-1.158 1.158z" fill="#fff"/></svg><svg fill="none" viewBox="0 0 18 18" id="twitter" xmlns="http://www.w3.org/2000/svg"><path d="M9 0a9 9 0 10.001 18.001A9 9 0 009 0zm4.325 6.784c.006.095.006.193.006.29 0 2.949-2.246 6.346-6.35 6.346a6.328 6.328 0 01-3.427-1c.18.02.353.027.538.027a4.476 4.476 0 002.77-.952 2.232 2.232 0 01-2.085-1.547c.344.05.653.05 1.007-.04a2.23 2.23 0 01-1.786-2.19V7.69c.295.167.643.27 1.006.283a2.233 2.233 0 01-.69-2.98 6.334 6.334 0 004.6 2.332c-.316-1.517.817-2.745 2.18-2.745.642 0 1.22.27 1.629.703a4.407 4.407 0 001.416-.536 2.22 2.22 0 01-.98 1.228c.45-.049.883-.173 1.285-.348a4.676 4.676 0 01-1.119 1.157z" fill="#fff"/></svg></svg>