<svg width="198" height="31" viewBox="0 0 198 31" fill="none" xmlns="http://www.w3.org/2000/svg">
<path d="M7.92125 12.147C9.20592 12.147 10.3554 12.4246 11.3696 12.9852C12.3838 13.5459 13.1795 14.3254 13.7517 15.3185C14.3238 16.317 14.6098 17.4382 14.6098 18.6823C14.6098 20.0278 14.329 21.2131 13.7673 22.2329C13.2055 23.2581 12.4202 24.0483 11.4164 24.6089C10.4126 25.1695 9.26833 25.4472 7.99406 25.4472H4.97744V30.5516H0V12.147H7.92125ZM8.6702 20.6365C8.96667 20.4389 9.20072 20.1666 9.37755 19.8249C9.55439 19.4832 9.64281 19.1041 9.64281 18.6876C9.64281 18.3726 9.55439 18.0576 9.37755 17.7479C9.20072 17.4382 8.96667 17.1819 8.665 16.979C8.36854 16.7761 8.05128 16.6747 7.7132 16.6747H4.97223V20.9355H7.7028C8.05128 20.9301 8.37374 20.834 8.6702 20.6365Z" fill="#0000FF"/>
<path d="M24.3619 12.147C25.6518 12.147 26.8064 12.4139 27.8155 12.9532C28.8245 13.4925 29.615 14.24 30.1872 15.2064C30.7593 16.1728 31.0453 17.278 31.0453 18.5221C31.0453 19.7128 30.7645 20.7806 30.2028 21.7203C29.641 22.6654 28.8661 23.3969 27.8831 23.9201L31.4978 30.5516H25.813L23.0201 24.721H22.1255H21.3609V30.5569H16.3887V12.147H24.3619ZM25.1161 20.22C25.4126 20.0545 25.6518 19.8196 25.8234 19.5206C25.9951 19.2216 26.0783 18.8905 26.0783 18.5168C26.0783 18.2124 25.9899 17.9134 25.813 17.6251C25.6362 17.3368 25.4022 17.1018 25.1057 16.9257C24.8092 16.7495 24.492 16.664 24.1487 16.664H21.3557V20.4656H24.1383C24.492 20.4709 24.8144 20.3909 25.1161 20.22Z" fill="#0000FF"/>
<path d="M37.0318 29.7027C35.5287 28.8377 34.3377 27.6631 33.4587 26.1788C32.5797 24.6944 32.1428 23.0766 32.1428 21.3253C32.1428 19.5634 32.5797 17.9509 33.4587 16.4719C34.3377 14.9983 35.5287 13.829 37.0318 12.964C38.535 12.099 40.1785 11.6719 41.9625 11.6719C43.736 11.6719 45.3796 12.1044 46.8775 12.964C48.3754 13.8236 49.5717 14.9929 50.4558 16.4719C51.34 17.9509 51.7821 19.5634 51.7821 21.3253C51.7821 23.0766 51.34 24.6944 50.4558 26.1788C49.5717 27.6631 48.3806 28.8377 46.8775 29.7027C45.3744 30.5677 43.736 31.0002 41.9625 31.0002C40.1785 31.0002 38.535 30.5677 37.0318 29.7027ZM44.4226 25.7089C45.1663 25.2871 45.7541 24.6891 46.1805 23.9309C46.6122 23.1674 46.8255 22.3024 46.8255 21.3414C46.8255 20.3803 46.6122 19.51 46.1805 18.7518C45.7489 17.9883 45.1611 17.3956 44.4226 16.9738C43.6788 16.552 42.8623 16.3384 41.9625 16.3384C41.0627 16.3384 40.2461 16.552 39.5024 16.9738C38.7586 17.3956 38.1709 17.9936 37.7444 18.7518C37.3127 19.5153 37.0995 20.3803 37.0995 21.3414C37.0995 22.3024 37.3179 23.1674 37.7496 23.9256C38.1865 24.6838 38.7742 25.2764 39.518 25.7036C40.2617 26.1307 41.0783 26.3443 41.9625 26.3443C42.8623 26.3443 43.6788 26.136 44.4226 25.7089Z" fill="#0000FF"/>
<path d="M53.8936 12.147H58.2729L63.3231 19.4672L68.4774 12.147H72.7995V30.5516H67.8429V20.2574L63.9264 26.0772H62.7146L58.8658 20.204V30.5569H53.8936V12.147Z" fill="#0000FF"/>
<path d="M79.8001 29.7027C78.297 28.8377 77.106 27.6631 76.227 26.1788C75.348 24.6944 74.9111 23.0766 74.9111 21.3253C74.9111 19.5634 75.348 17.9509 76.227 16.4719C77.106 14.9983 78.297 13.829 79.8001 12.964C81.3033 12.1044 82.9468 11.6719 84.7308 11.6719C86.5043 11.6719 88.1479 12.1044 89.6458 12.964C91.1489 13.8236 92.34 14.9929 93.2241 16.4719C94.1083 17.9456 94.5504 19.5634 94.5504 21.3253C94.5504 23.0766 94.1083 24.6944 93.2241 26.1788C92.34 27.6631 91.1489 28.8377 89.6458 29.7027C88.1427 30.5677 86.5043 31.0002 84.7308 31.0002C82.9468 31.0002 81.3033 30.5677 79.8001 29.7027ZM87.1909 25.7089C87.9346 25.2871 88.5224 24.6891 88.9489 23.9309C89.3805 23.1674 89.5938 22.3024 89.5938 21.3414C89.5938 20.3803 89.3805 19.51 88.9489 18.7518C88.5172 17.9883 87.9294 17.3956 87.1909 16.9738C86.4471 16.552 85.6306 16.3384 84.7308 16.3384C83.831 16.3384 83.0144 16.552 82.2707 16.9738C81.5269 17.3956 80.9392 17.9936 80.5127 18.7518C80.081 19.5153 79.8678 20.3803 79.8678 21.3414C79.8678 22.3024 80.0862 23.1674 80.5179 23.9256C80.9496 24.6838 81.5425 25.2764 82.2863 25.7036C83.03 26.1307 83.8466 26.3443 84.7308 26.3443C85.6306 26.3443 86.4471 26.136 87.1909 25.7089Z" fill="#0000FF"/>
<path d="M100.397 29.6974C98.9351 28.8271 97.7752 27.6524 96.9118 26.1735C96.0485 24.6945 95.6116 23.0767 95.6116 21.3307C95.6116 19.5687 96.0485 17.9563 96.917 16.4773C97.7856 14.9983 98.9611 13.8343 100.443 12.9694C101.926 12.1044 103.538 11.6772 105.291 11.6772C106.591 11.6772 107.902 11.9602 109.228 12.5209C110.554 13.0815 111.688 13.8984 112.635 14.9663C113.587 16.0288 114.164 17.2782 114.377 18.7144H109.316C108.906 17.9456 108.344 17.3583 107.642 16.9471C106.94 16.536 106.107 16.3331 105.15 16.3331C104.313 16.3331 103.548 16.5307 102.857 16.9204C102.165 17.3156 101.608 17.8869 101.198 18.6397C100.787 19.3925 100.579 20.2949 100.579 21.3414C100.579 22.4253 100.781 23.3383 101.192 24.0911C101.603 24.8386 102.155 25.4046 102.846 25.7837C103.543 26.1628 104.308 26.3497 105.156 26.3497C106.071 26.3497 106.856 26.1788 107.522 25.8371C108.188 25.4954 108.64 24.9614 108.885 24.2406H104.968V20.2628H114.476C114.512 22.5267 114.164 24.4649 113.436 26.0773C112.708 27.6898 111.636 28.9125 110.232 29.7508C108.828 30.5891 107.137 31.0109 105.171 31.0109C103.439 31.0002 101.853 30.5677 100.397 29.6974Z" fill="#0000FF"/>
<path d="M124.545 12.147C125.835 12.147 126.99 12.4139 127.999 12.9532C129.008 13.4925 129.798 14.24 130.37 15.2064C130.942 16.1728 131.228 17.278 131.228 18.5221C131.228 19.7128 130.948 20.7806 130.386 21.7203C129.824 22.6654 129.049 23.3969 128.066 23.9201L131.681 30.5516H125.996L123.203 24.7157H122.309H121.544V30.5516H116.572V12.147H124.545ZM125.299 20.22C125.596 20.0545 125.835 19.8196 126.007 19.5206C126.178 19.2216 126.261 18.8905 126.261 18.5168C126.261 18.2124 126.173 17.9134 125.996 17.6251C125.819 17.3368 125.585 17.1018 125.289 16.9257C124.992 16.7495 124.675 16.664 124.332 16.664H121.539V20.4656H124.321C124.675 20.4709 124.998 20.3909 125.299 20.22Z" fill="#0000FF"/>
<path d="M137.215 29.7027C135.712 28.8377 134.521 27.6631 133.642 26.1788C132.763 24.6944 132.326 23.0766 132.326 21.3253C132.326 19.5634 132.763 17.9509 133.642 16.4719C134.521 14.9983 135.712 13.829 137.215 12.964C138.718 12.099 140.362 11.6719 142.146 11.6719C143.919 11.6719 145.563 12.1044 147.061 12.964C148.558 13.8236 149.755 14.9929 150.639 16.4719C151.523 17.9509 151.965 19.5634 151.965 21.3253C151.965 23.0766 151.523 24.6944 150.639 26.1788C149.755 27.6631 148.564 28.8377 147.061 29.7027C145.557 30.5677 143.919 31.0002 142.146 31.0002C140.362 31.0002 138.718 30.5677 137.215 29.7027ZM144.606 25.7089C145.349 25.2871 145.937 24.6891 146.364 23.9309C146.795 23.1674 147.009 22.3024 147.009 21.3414C147.009 20.3803 146.795 19.51 146.364 18.7518C145.932 17.9883 145.344 17.3956 144.606 16.9738C143.862 16.552 143.045 16.3384 142.146 16.3384C141.251 16.3384 140.429 16.552 139.685 16.9738C138.942 17.3956 138.354 17.9936 137.927 18.7518C137.501 19.51 137.283 20.3803 137.283 21.3414C137.283 22.3024 137.501 23.1674 137.933 23.9256C138.364 24.6838 138.957 25.2764 139.701 25.7036C140.445 26.1307 141.261 26.3443 142.146 26.3443C143.045 26.3443 143.862 26.136 144.606 25.7089Z" fill="#0000FF"/>
<path d="M157.77 30.0817C156.537 29.4677 155.575 28.592 154.867 27.4494C154.165 26.3068 153.812 24.9773 153.812 23.461V12.147H158.768V23.0819C158.768 24.075 159.039 24.8705 159.585 25.4792C160.131 26.0879 160.901 26.3869 161.894 26.3869C162.872 26.3869 163.631 26.0826 164.177 25.4739C164.723 24.8652 164.994 24.0643 164.994 23.0712V12.147H169.966V23.461C169.966 24.9026 169.638 26.2 168.978 27.3426C168.317 28.4906 167.376 29.3822 166.159 30.0283C164.937 30.6744 163.517 30.9947 161.899 30.9947C160.375 31.0001 159.002 30.6957 157.77 30.0817Z" fill="#0000FF"/>
<path d="M180.79 12.147C182.074 12.147 183.224 12.4246 184.238 12.9852C185.252 13.5459 186.048 14.3254 186.62 15.3185C187.192 16.317 187.478 17.4382 187.478 18.6823C187.478 20.0278 187.197 21.2131 186.636 22.2329C186.074 23.2581 185.289 24.0483 184.285 24.6089C183.281 25.1695 182.137 25.4472 180.862 25.4472H177.846V30.5516H172.874V12.147H180.79ZM181.533 20.6365C181.83 20.4389 182.064 20.1666 182.241 19.8249C182.418 19.4832 182.506 19.1041 182.506 18.6876C182.506 18.3726 182.418 18.0576 182.241 17.7479C182.064 17.4382 181.83 17.1819 181.528 16.979C181.232 16.7761 180.914 16.6747 180.576 16.6747H177.835V20.9355H180.566C180.914 20.9301 181.237 20.834 181.533 20.6365Z" fill="#0000FF"/>
<path d="M183.993 0H182.407V8.77248H183.993V0Z" fill="#0000FF"/>
<path d="M178.927 3.57219V5.20068L187.473 5.20068V3.57219L178.927 3.57219Z" fill="#0000FF"/>
<path d="M198.001 13.2985L196.879 12.147L190.836 18.35L191.958 19.5015L198.001 13.2985Z" fill="#0000FF"/>
<path d="M191.955 12.1454L190.833 13.2969L196.875 19.4999L197.997 18.3484L191.955 12.1454Z" fill="#0000FF"/>
<path d="M194.448 6.30579C195.479 6.30579 196.315 5.4476 196.315 4.38898C196.315 3.33035 195.479 2.47217 194.448 2.47217C193.417 2.47217 192.581 3.33035 192.581 4.38898C192.581 5.4476 193.417 6.30579 194.448 6.30579Z" fill="#0000FF"/>
</svg>
