<svg width="139" height="51" fill="none" xmlns="http://www.w3.org/2000/svg"><path d="M23.341 37.007c0-.277.092-.523.245-.677.154-.185.399-.246.705-.246h3.434c.245 0 .46.092.674.246.215.154.307.4.307.677v9.752c0 .184-.03.338-.123.492a1.256 1.256 0 01-.46.43h-.06c-.675.462-1.38.893-2.147 1.262-.766.37-1.563.677-2.391.923a23.58 23.58 0 01-2.544.584c-.89.123-1.748.216-2.637.216-1.472 0-2.912-.185-4.292-.585a15.36 15.36 0 01-3.863-1.63 16.168 16.168 0 01-3.25-2.523 16.21 16.21 0 01-2.513-3.26A15.47 15.47 0 012.8 38.79a16.774 16.774 0 01-.582-4.307c0-1.477.183-2.923.582-4.307.399-1.384.92-2.676 1.625-3.876a16.403 16.403 0 012.514-3.292c.98-.984 2.054-1.846 3.28-2.553a15.36 15.36 0 013.863-1.63c1.38-.4 2.82-.585 4.292-.585 1.011 0 1.992.092 3.004.277 1.012.184 1.962.43 2.882.8.337.153.766.307 1.257.522.49.216.95.431 1.38.708a6.4 6.4 0 011.103.8c.306.277.46.523.46.8 0 .123-.062.307-.184.553a6.446 6.446 0 01-.49.831 8.687 8.687 0 01-.645.954c-.245.338-.46.646-.705.892-.214.277-.429.492-.613.677-.184.184-.337.277-.429.277-.092 0-.184-.031-.306-.062a.77.77 0 01-.368-.215 11.89 11.89 0 00-3.005-1.477 10.657 10.657 0 00-3.403-.554c-1.502 0-2.881.277-4.138.862a9.79 9.79 0 00-3.25 2.307c-.889.954-1.594 2.092-2.115 3.353-.521 1.262-.767 2.615-.767 4 0 1.445.276 2.799.828 4.06a11.216 11.216 0 002.207 3.323 9.547 9.547 0 003.25 2.215 9.497 9.497 0 003.955.83c.52 0 1.042-.03 1.532-.123.491-.092.982-.184 1.441-.307.43-.123.828-.246 1.196-.4.337-.154.644-.308.858-.43v-6.707h.031z" fill="#F7981D"/><path d="M34.745 19.502c0-.861.43-1.292 1.257-1.292h3.556c.399 0 .706.092.95.308.246.215.369.523.369.953v2.83c0 .339-.123.647-.338.924-.214.276-.551.43-.95.43h-3.556c-.858 0-1.257-.461-1.257-1.354v-2.799h-.03zm0 10.337c0-.37.092-.677.307-.923s.521-.37.92-.37h3.525c.154 0 .307.031.49.093.154.061.307.154.43.277.122.123.245.246.306.4.092.154.123.338.123.523v19.073c0 .862-.43 1.261-1.318 1.261h-3.526c-.858 0-1.257-.43-1.257-1.26V29.838zm13.857-6.522c0-1.262.184-2.462.583-3.63a9.087 9.087 0 011.686-3.077 7.97 7.97 0 012.698-2.123c1.073-.523 2.268-.8 3.617-.8h.215c.398 0 .735.124.95.37.215.246.337.584.337 1.015v2.922c0 .4-.122.77-.337 1.046a1.089 1.089 0 01-.889.431c-.215 0-.49.062-.797.154-.337.092-.644.277-.92.492-.306.215-.551.523-.766.861-.215.37-.307.77-.307 1.262v3.445h3.066c.398 0 .736.093.95.308.215.215.338.554.338 1.046v2.615c0 .492-.123.861-.338 1.107-.214.247-.552.37-.95.37h-3.066V48.82c0 .461-.153.8-.429 1.015a1.468 1.468 0 01-.98.338h-3.281c-.43 0-.736-.123-.981-.4s-.337-.584-.337-.984V31.13h-2.085c-.399 0-.736-.123-.981-.37-.245-.246-.368-.615-.368-1.107v-2.615c0-.492.123-.861.368-1.046.245-.215.582-.308.98-.308h2.086v-2.368h-.062zm25.323 26.856a9.529 9.529 0 01-3.127-.523c-.981-.338-1.84-.8-2.545-1.415-.736-.615-1.287-1.384-1.716-2.276-.43-.892-.644-1.908-.644-3.077V31.038H63.47c-.399 0-.705-.092-.92-.276-.215-.185-.306-.493-.306-.923V26.7c0-.4.092-.708.306-.862.215-.153.521-.246.92-.246h2.422v-4.245c0-.277.092-.492.276-.677.184-.154.46-.308.827-.43.246-.093.522-.185.859-.308.337-.123.674-.246 1.042-.339a7.51 7.51 0 011.042-.277 3.19 3.19 0 01.859-.123c.429 0 .736.123.858.37.123.246.215.553.215.953v5.107h3.035c.368 0 .644.092.858.277.184.184.307.492.307.892v3.015c0 .461-.092.769-.307.984-.184.185-.49.308-.858.308h-3.097v11.259c0 .923.184 1.6.552 2.03.368.4.95.616 1.778.616.307 0 .522.092.706.308.183.215.245.461.245.769v2.953c0 .37-.092.646-.307.862-.214.215-.49.276-.858.276zm6.928-4.091c0-.4.062-.739.154-1.016.091-.276.367-.43.766-.43h3.31c.185 0 .338 0 .522.03.184 0 .337.062.49.124a.837.837 0 01.368.276.883.883 0 01.154.523v3.138c0 .185 0 .37-.03.554 0 .185-.062.339-.124.462a.752.752 0 01-.275.338c-.123.092-.307.123-.522.123h-3.31c-.491 0-.859-.062-1.135-.154s-.368-.369-.368-.8v-3.168zm12.079-18.827c0-.4.153-.708.399-.923a1.42 1.42 0 01.889-.308h2.697c.368 0 .614.092.797.308.184.215.338.461.43.8.092.307.184.645.214 1.015.03.369.092.677.154.984.306-.43.674-.861 1.042-1.292.398-.43.828-.8 1.318-1.107.491-.339 1.042-.585 1.686-.8a7.304 7.304 0 012.116-.308c.705 0 1.348.03 1.9.123a9.714 9.714 0 011.625.43 7.503 7.503 0 011.502.74c.491.307 1.012.676 1.594 1.076.246.154.46.338.614.523.184.184.276.43.276.707 0 .123-.031.247-.062.37a1.03 1.03 0 01-.184.369l-1.747 2.768a.935.935 0 01-.399.308 1.055 1.055 0 01-.398.092c-.215 0-.429-.061-.644-.184-.46-.246-.889-.492-1.257-.708a9.932 9.932 0 00-1.134-.584 6.988 6.988 0 00-1.135-.37 5.711 5.711 0 00-1.287-.122c-1.257 0-2.33.4-3.188 1.2-.859.8-1.441 1.907-1.748 3.322v13.228c0 .862-.43 1.261-1.318 1.261h-3.495c-.89 0-1.318-.43-1.318-1.26V27.254h.061zm45.587 22.118a.51.51 0 01-.154.37c-.092.092-.245.153-.398.184a2.69 2.69 0 01-.521.061h-2.637c-.398 0-.705-.123-.919-.4-.184-.276-.338-.553-.399-.892l-.245-1.938a7.832 7.832 0 01-1.165 1.354c-.46.43-1.012.8-1.656 1.138-.643.339-1.379.585-2.176.8-.828.184-1.748.308-2.79.308-1.686 0-3.158-.308-4.445-.893-1.288-.615-2.361-1.415-3.219-2.46-.859-1.047-1.533-2.277-1.993-3.692-.46-1.416-.674-2.923-.674-4.553V27.377c0-.523.122-.892.367-1.169.246-.277.583-.4 1.043-.4h3.219c.552 0 .95.092 1.134.308.184.215.276.584.276 1.138v11.383c0 .738.123 1.476.337 2.184.245.707.583 1.353 1.043 1.907a5.132 5.132 0 001.747 1.354c.705.338 1.502.523 2.452.523.644 0 1.319-.123 2.024-.339.705-.215 1.349-.584 1.931-1.046a5.386 5.386 0 001.441-1.753c.368-.708.583-1.508.583-2.461V28.023c0-.246 0-.523.03-.769a2.4 2.4 0 01.184-.708c.092-.215.215-.4.368-.523s.399-.215.674-.215h3.495c.46 0 .797.123 1.012.338.215.216.337.554.337.954v21.627c.031.277-.092.492-.306.646z" fill="#fff"/><path d="M16.627 10.396l-.03-1.138c0-.277-.184-7.076 4.2-8.43a4.11 4.11 0 013.188.308 4.194 4.194 0 012.054 2.461c.674 2.215-.552 4.553-2.76 5.23-1.716.523-5.364 1.292-5.517 1.354l-1.135.215zm5.427-7.845c-.215 0-.46.031-.675.092-1.226.37-2.085 1.57-2.544 3.508a18.66 18.66 0 00-.307 1.907c1.226-.277 3.127-.708 4.17-1.046.582-.185 1.042-.585 1.348-1.108a2.328 2.328 0 00.154-1.753c-.184-.585-.583-1.046-1.104-1.354a2.468 2.468 0 00-1.042-.246z" fill="#F7981D"/><path d="M16.627 10.396l-1.103-.246c-.154-.031-3.802-.8-5.518-1.354-2.208-.677-3.434-3.046-2.76-5.23.675-2.215 3.035-3.445 5.212-2.769 4.415 1.354 4.23 8.153 4.2 8.43l-.03 1.169zM11.232 2.55a2.23 2.23 0 00-1.073.277c-.552.277-.92.769-1.104 1.353-.184.585-.123 1.2.153 1.754s.767.923 1.35 1.108c1.042.338 2.942.769 4.169 1.045a10.094 10.094 0 00-.307-1.938c-.46-1.938-1.318-3.076-2.514-3.476a1.742 1.742 0 00-.674-.123z" fill="#F7981D"/><path d="M31.833 13.872H1.391a.826.826 0 01-.828-.83v-2.246c0-.462.368-.831.828-.831h30.442c.46 0 .828.369.828.83v2.246c-.03.462-.399.83-.828.83z" fill="#F7981D"/></svg>