<?xml version="1.0" encoding="utf-8"?><svg xmlns="http://www.w3.org/2000/svg" xmlns:xlink="http://www.w3.org/1999/xlink"><symbol viewBox="0 0 20 14" id="bed" xmlns="http://www.w3.org/2000/svg"><path d="M19.375 10.438h-.313v-2.5a1.252 1.252 0 00-1.25-1.25V1.375a1.252 1.252 0 00-1.25-1.25H3.438a1.252 1.252 0 00-1.25 1.25v5.313a1.252 1.252 0 00-1.25 1.25v2.5H.625a.312.312 0 00-.313.312V12a.313.313 0 00.313.313h.313v1.25a.313.313 0 00.312.312h.938a.312.312 0 00.306-.251l.262-1.312h14.488l.262 1.312a.312.312 0 00.306.251h.938a.313.313 0 00.313-.313v-1.25h.312a.313.313 0 00.313-.312v-1.25a.313.313 0 00-.313-.313zM2.812 1.374A.626.626 0 013.438.75h13.124a.626.626 0 01.625.625v5.313h-.625v-1.25a1.252 1.252 0 00-1.25-1.25h-3.75a1.252 1.252 0 00-1.25 1.25v1.25h-.624v-1.25a1.252 1.252 0 00-1.25-1.25h-3.75a1.252 1.252 0 00-1.25 1.25v1.25h-.626V1.375zm13.126 4.063v1.25h-5v-1.25a.626.626 0 01.624-.625h3.75a.626.626 0 01.626.625zm-6.876 0v1.25h-5v-1.25a.626.626 0 01.625-.625h3.75a.626.626 0 01.626.625zm-7.5 2.5a.626.626 0 01.625-.625h15.626a.626.626 0 01.625.625v2.5H1.563v-2.5zm.37 5.312h-.37v-.938h.557l-.188.938zm16.506 0h-.37l-.187-.938h.556v.938zm.625-1.563H.938v-.624h18.125v.624z"/></symbol><symbol viewBox="0 0 20 14" id="box" xmlns="http://www.w3.org/2000/svg"><path d="M19.936 4.871L18.06 2.367s-.041-.073-.167-.113L10.088.05a.323.323 0 00-.176 0L2.106 2.254s-.107.03-.17.117l-1.872 2.5a.323.323 0 00.155.5l1.652.56v4.483c0 .13.079.248.2.298l7.806 3.226c.023.01.053.024.123.024s.123-.024.123-.024l7.807-3.226a.323.323 0 00.199-.298V5.931l1.652-.56a.323.323 0 00.155-.5zM.847 4.902L2.32 2.934l.596.164 3.352.924 3.17.873L7.58 7.187.847 4.902zm8.83 8.256l-7.16-2.96V6.15l5.068 1.72a.32.32 0 00.354-.102l1.739-2.143v7.533zM10 4.38L3.394 2.56 10 .695l6.606 1.866L10 4.38zm7.484 5.817l-7.161 2.96V5.625l1.738 2.143a.323.323 0 00.354.102l5.069-1.72v4.048zm-5.064-3.01l-1.86-2.292 7.12-1.961 1.472 1.968-6.732 2.285z"/></symbol><symbol viewBox="0 0 25 23" id="card-heart" xmlns="http://www.w3.org/2000/svg"><path d="M23.017 2.544c-1.294-1.404-3.07-2.177-5-2.177-1.444 0-2.765.456-3.929 1.356A8.036 8.036 0 0012.5 3.381a8.033 8.033 0 00-1.588-1.658C9.748.823 8.427.367 6.984.367c-1.93 0-3.707.773-5 2.177C.703 3.93 0 5.826 0 7.88c0 2.115.788 4.05 2.48 6.091 1.513 1.826 3.688 3.68 6.206 5.826.86.733 1.835 1.564 2.848 2.449a1.466 1.466 0 001.932 0c1.012-.885 1.988-1.716 2.848-2.45 2.518-2.145 4.693-3.999 6.207-5.825C24.212 11.931 25 9.995 25 7.881c0-2.055-.704-3.95-1.983-5.337z"/></symbol><symbol viewBox="0 0 25 25" id="cart" xmlns="http://www.w3.org/2000/svg"><path d="M8.055 16.162h13.283a.733.733 0 00.704-.531l2.93-10.254a.733.733 0 00-.704-.934H6.366l-.524-2.356a.733.733 0 00-.715-.573H.732a.732.732 0 100 1.465H4.54l2.645 11.9a2.2 2.2 0 00-1.325 2.016 2.2 2.2 0 002.198 2.197h13.28a.732.732 0 100-1.465H8.058a.733.733 0 01-.002-1.465zM23.297 5.908l-2.512 8.79H8.645L6.69 5.907h16.606zM7.324 21.29a2.2 2.2 0 002.197 2.196 2.2 2.2 0 002.198-2.197 2.2 2.2 0 00-2.198-2.197 2.2 2.2 0 00-2.197 2.197zm2.197-.733a.733.733 0 010 1.465.733.733 0 010-1.465zm8.155.733a2.2 2.2 0 002.197 2.196 2.2 2.2 0 002.197-2.197 2.2 2.2 0 00-2.197-2.197 2.2 2.2 0 00-2.197 2.197zm2.197-.733a.733.733 0 010 1.465.733.733 0 010-1.465z"/></symbol><symbol viewBox="0 0 25 25" id="catalog" xmlns="http://www.w3.org/2000/svg"><path d="M8.496 11.719H3.223A3.226 3.226 0 010 8.496V3.223A3.226 3.226 0 013.223 0h5.273a3.226 3.226 0 013.223 3.223v5.273a3.226 3.226 0 01-3.223 3.223zM3.223 1.563c-.916 0-1.66.744-1.66 1.66v5.273c0 .916.744 1.66 1.66 1.66h5.273c.916 0 1.66-.744 1.66-1.66V3.223c0-.916-.744-1.66-1.66-1.66H3.223zm18.554 10.156h-5.273a3.226 3.226 0 01-3.223-3.223V3.223A3.226 3.226 0 0116.504 0h5.273A3.226 3.226 0 0125 3.223v5.273a3.226 3.226 0 01-3.223 3.223zM16.504 1.563c-.916 0-1.66.744-1.66 1.66v5.273c0 .916.745 1.66 1.66 1.66h5.273c.916 0 1.66-.744 1.66-1.66V3.223c0-.916-.744-1.66-1.66-1.66h-5.273zM19.14 25a5.866 5.866 0 01-5.859-5.86 5.867 5.867 0 015.86-5.859A5.867 5.867 0 0125 19.141 5.867 5.867 0 0119.14 25zm0-10.156a4.302 4.302 0 00-4.296 4.297 4.302 4.302 0 004.297 4.297 4.302 4.302 0 004.297-4.297 4.302 4.302 0 00-4.297-4.297zM8.496 25H3.223A3.226 3.226 0 010 21.777v-5.273a3.226 3.226 0 013.223-3.223h5.273a3.226 3.226 0 013.223 3.223v5.273A3.226 3.226 0 018.496 25zM3.223 14.844c-.916 0-1.66.745-1.66 1.66v5.273c0 .916.744 1.66 1.66 1.66h5.273c.916 0 1.66-.744 1.66-1.66v-5.273c0-.916-.744-1.66-1.66-1.66H3.223z"/></symbol><symbol viewBox="0 0 11 19" id="catalog-arrow" xmlns="http://www.w3.org/2000/svg"><path d="M1 18l8.5-8.5L1 1"/></symbol><symbol viewBox="0 0 15 13" id="checkbox" xmlns="http://www.w3.org/2000/svg"><path d="M1 5.5L7 11l7-10"/></symbol><symbol viewBox="0 0 24 23" id="clock" xmlns="http://www.w3.org/2000/svg"><g clip-path="url(#aha)"><path d="M11.987 23C5.618 23 .437 17.841.437 11.5S5.619 0 11.988 0c6.368 0 11.55 5.159 11.55 11.5S18.354 23 11.986 23zm0-21.563C6.414 1.438 1.88 5.952 1.88 11.5s4.533 10.063 10.106 10.063c5.572 0 10.106-4.514 10.106-10.063S17.559 1.437 11.987 1.437z"/><path d="M17.04 17.73a.718.718 0 01-.51-.212l-5.053-5.031a.717.717 0 01-.211-.508V5.271a.72.72 0 01.722-.719.72.72 0 01.721.719v6.41l4.841 4.82a.718.718 0 01-.51 1.228z"/></g><defs><clipPath id="aha"><path transform="translate(.438)" d="M0 0h23.099v23H0z"/></clipPath></defs></symbol><symbol viewBox="0 0 10 19" id="common-arrow" xmlns="http://www.w3.org/2000/svg"><path d="M9.5 1L1 9.5 9.5 18"/></symbol><symbol viewBox="0 0 18 18" id="dishes" xmlns="http://www.w3.org/2000/svg"><path d="M17.648 15.082H16.09c.766-.425 1.405-1 1.85-1.668a.352.352 0 00-.292-.547h-.643C17.665 11.572 18 10.273 18 9c0-4.853-4.143-9-9-9-4.849 0-9 4.138-9 9 0 1.273.334 2.572.995 3.867H.352a.351.351 0 00-.293.547c.455.682 1.104 1.255 1.845 1.668H.352a.352.352 0 00-.293.547C1.005 17.047 2.791 18 4.504 18h8.992c1.697 0 3.506-.963 4.445-2.371a.351.351 0 00-.293-.547zM.703 9C.703 4.503 4.503.703 9 .703c4.497 0 8.297 3.8 8.297 8.297 0 1.264-.366 2.564-1.088 3.867H14.45c.864-1.177 1.334-2.527 1.334-3.867 0-3.678-3.107-6.785-6.785-6.785S2.215 5.322 2.215 9c0 1.34.47 2.69 1.335 3.867H1.79C1.07 11.564.703 10.264.703 9zm12.85 3.867H4.447C3.46 11.717 2.918 10.35 2.918 9c0-3.297 2.785-6.082 6.082-6.082 3.297 0 6.082 2.785 6.082 6.082 0 1.35-.542 2.717-1.529 3.867zm-12.47.7h15.835c-.842.889-2.15 1.515-3.422 1.515H4.504c-1.233 0-2.552-.603-3.42-1.515zm12.413 3.73H4.504c-1.233 0-2.552-.603-3.42-1.515h15.834c-.842.889-2.15 1.515-3.422 1.515z"/></symbol><symbol viewBox="0 0 12 18" id="disposable-tableware" xmlns="http://www.w3.org/2000/svg"><path d="M10.986.028a.327.327 0 00-.351.056C8.762 1.78 7.552 4.13 7.552 6.072v5.095c0 .177.148.325.325.325h.798v6.178c0 .178.148.326.325.326h1.852a.334.334 0 00.33-.326V.327a.329.329 0 00-.196-.3zm-.46 17.317h-1.2v-5.853h1.2v5.853zm0-6.504H8.204V6.072c0-1.548.914-3.469 2.324-4.969v9.738zM4.847.003a.328.328 0 00-.326.325v4.336h-1.2V.328a.328.328 0 00-.326-.325.328.328 0 00-.325.325v4.336h-1.2V.328a.328.328 0 00-.325-.325.328.328 0 00-.325.325v5.745c0 .898.806 1.64 1.851 1.77v3h-.728v6.126c0 .577.438 1.032.997 1.032h.113c.559 0 .997-.45.997-1.032v-6.127h-.73v-3c1.05-.13 1.852-.871 1.852-1.769V.328a.328.328 0 00-.325-.325zm-1.444 11.49v5.476h-.005c0 .182-.12.382-.346.382h-.113c-.226 0-.347-.195-.347-.382v-5.476h.81zm1.123-5.42H4.52c0 .616-.698 1.136-1.526 1.136-.828 0-1.526-.52-1.526-1.136v-.759h3.057v.76z"/></symbol><symbol viewBox="0 0 23 15" id="eye" xmlns="http://www.w3.org/2000/svg"><path d="M22.854 7.053C22.648 6.772 17.753.17 11.5.17 5.247.17.35 6.772.146 7.052a.759.759 0 000 .895C.351 8.23 5.247 14.83 11.5 14.83c6.253 0 11.148-6.602 11.354-6.882a.758.758 0 000-.895zM11.5 13.313c-4.606 0-8.595-4.381-9.776-5.813 1.18-1.434 5.16-5.813 9.776-5.813 4.605 0 8.594 4.38 9.776 5.814-1.18 1.433-5.16 5.812-9.776 5.812z"/><path d="M11.499 2.95a4.555 4.555 0 00-4.55 4.55 4.556 4.556 0 004.55 4.55 4.555 4.555 0 004.55-4.55 4.555 4.555 0 00-4.55-4.55zm0 7.583A3.036 3.036 0 018.466 7.5a3.036 3.036 0 013.033-3.033A3.036 3.036 0 0114.532 7.5a3.036 3.036 0 01-3.033 3.033z"/></symbol><symbol viewBox="0 0 32 32" id="fb" xmlns="http://www.w3.org/2000/svg"><path fill-rule="evenodd" clip-rule="evenodd" d="M16 32c8.837 0 16-7.163 16-16S24.837 0 16 0 0 7.163 0 16s7.163 16 16 16zm-1.673-7.035h2.888a.875.875 0 00.875-.873V17.59h2.06a.875.875 0 00.875-.873v-2.786a.876.876 0 00-.882-.873H18.09v-1.103c0-.359.049-.489.09-.535.024-.027.139-.118.591-.118h1.483a.875.875 0 00.875-.874V7.842a.875.875 0 00-.873-.874l-2.203-.003c-1.36 0-2.515.447-3.342 1.294-.824.843-1.259 2.02-1.259 3.404v1.395h-1.685a.875.875 0 00-.875.873v2.786c0 .481.393.873.875.873h1.685v6.502c0 .481.393.873.875.873zm2.706-1.055H14.51v-6.792a.584.584 0 00-.584-.583H11.95v-2.422h1.976a.584.584 0 00.584-.583v-1.867c0-2.247 1.357-3.643 3.542-3.643l2.02.003v2.223H18.77c-.414 0-1.008.05-1.384.476-.312.352-.354.821-.354 1.233v1.575c0 .322.262.583.584.583h2.351v2.422h-2.351a.584.584 0 00-.584.583v6.792z"/></symbol><symbol viewBox="0 0 21 27" id="fire" xmlns="http://www.w3.org/2000/svg"><path d="M20.567 15.808c-.309-4.027-2.184-6.55-3.838-8.777C15.198 4.97 13.875 3.19 13.875.563a.563.563 0 00-.89-.457c-2.484 1.777-4.556 4.773-5.28 7.632-.503 1.99-.57 4.227-.579 5.704-2.294-.49-2.813-3.92-2.819-3.958a.565.565 0 00-.803-.427C3.384 9.115.552 10.554.387 16.3a9.53 9.53 0 00-.012.575c0 5.582 4.542 10.124 10.125 10.124.008 0 .016.002.023 0h.007c5.569-.016 10.095-4.552 10.095-10.124 0-.28-.058-1.067-.058-1.067zM10.5 25.874c-1.861 0-3.375-1.612-3.375-3.595 0-.067 0-.136.004-.219.023-.836.182-1.407.356-1.786.326.7.91 1.345 1.857 1.345a.563.563 0 00.563-.563c0-.8.016-1.724.216-2.558.177-.74.601-1.526 1.138-2.157.24.819.705 1.481 1.16 2.128.65.925 1.324 1.881 1.442 3.512.007.097.014.194.014.298 0 1.983-1.514 3.595-3.375 3.595z"/></symbol><symbol viewBox="0 0 18 18" id="fireworks" xmlns="http://www.w3.org/2000/svg"><g clip-path="url(#aoa)"><path d="M17.306 10.034a.352.352 0 00-.146-.475 5.513 5.513 0 00-6.08.607l-.568-.568.928-.928a.352.352 0 00-.497-.497l-.928.928L7.75 6.837a4.91 4.91 0 00.4-5.244.352.352 0 00-.621.33 4.187 4.187 0 01-.282 4.411l-1.49-1.491a.859.859 0 00-.796-.233.859.859 0 00-.624.546L.054 16.839a.854.854 0 00.2.907.855.855 0 00.907.2l11.683-4.283a.86.86 0 00.546-.624.86.86 0 00-.232-.796l-1.578-1.577a4.81 4.81 0 015.25-.486.352.352 0 00.476-.146zM5.6 15.57L2.43 12.4l.878-2.395 4.687 4.687-2.395.878zm-1.718.63L1.8 14.118l.363-.99 2.709 2.709-.99.363zM.919 17.286a.153.153 0 01-.168-.037.153.153 0 01-.037-.168l.82-2.235 1.62 1.62-2.235.82zm11.784-4.398a.155.155 0 01-.1.115l-2.162.793-4.203-4.198a.352.352 0 00-.497.497l3.972 3.967-.99.363-5.148-5.148.363-.99 1.769 1.769a.35.35 0 00.497 0 .352.352 0 000-.497l-2-2 .793-2.161a.155.155 0 01.115-.101.153.153 0 01.147.043l7.401 7.4c.054.054.05.116.043.148zm-2.1-10.082a.352.352 0 00.351-.352c0-.294.24-.534.534-.534.683 0 1.238-.555 1.238-1.237a.352.352 0 00-.704 0c0 .294-.24.534-.534.534-.682 0-1.237.555-1.237 1.237 0 .194.158.352.352.352zm3.119 3.318A1.28 1.28 0 0015 4.846c0-.316.258-.574.574-.574a.352.352 0 100-.703 1.28 1.28 0 00-1.277 1.277.575.575 0 01-.575.575.352.352 0 000 .703zm2.028.678c0 .62.505 1.125 1.125 1.125S18 7.422 18 6.802s-.505-1.125-1.125-1.125-1.125.505-1.125 1.125zm1.125-.422a.422.422 0 11-.001.845.422.422 0 01.001-.845z"/><path d="M11.078 5.971a1.126 1.126 0 000-2.25c-.62 0-1.125.505-1.125 1.125s.505 1.125 1.125 1.125zm0-1.546a.422.422 0 11-.001.844.422.422 0 01.001-.844zM4.5 2.25c.62 0 1.125-.505 1.125-1.125S5.12 0 4.5 0 3.375.505 3.375 1.125 3.88 2.25 4.5 2.25zm0-1.547a.422.422 0 110 .845.422.422 0 010-.845zm11.408 11.639a.352.352 0 00-.497.497l.332.331a.35.35 0 00.497 0 .352.352 0 000-.497l-.332-.331zM17.566 14a.352.352 0 10-.498.496l.332.332a.35.35 0 10.497-.497l-.331-.332zm-.166-1.658l-.332.331a.352.352 0 00.497.498l.332-.332a.351.351 0 10-.497-.497zM15.743 14l-.332.33a.352.352 0 10.497.498l.332-.332a.352.352 0 00-.497-.497zm1.574-12.965a.35.35 0 00.249-.103L17.897.6A.352.352 0 1017.4.103l-.332.331a.352.352 0 00.249.6zM15.66 2.692a.35.35 0 00.248-.103l.332-.332a.352.352 0 00-.497-.497l-.332.332a.352.352 0 00.249.6zm1.906-.932a.352.352 0 00-.498.497l.332.332a.35.35 0 00.497 0 .352.352 0 000-.497l-.331-.332zM15.743.932a.35.35 0 00.497 0 .352.352 0 000-.498l-.332-.331a.352.352 0 00-.497.497l.332.332zm-3.54 5.98l-.255.255a.352.352 0 00.498.497l.255-.254a.352.352 0 00-.498-.498z"/></g><defs><clipPath id="aoa"><path d="M0 0h18v18H0z"/></clipPath></defs></symbol><symbol viewBox="0 0 25 11" id="glasses" xmlns="http://www.w3.org/2000/svg"><path d="M24.583 4.667h-.908C23.279 2.306 21.237.5 18.78.5a5.031 5.031 0 00-4.927 3.991c-.405-.339-.866-.519-1.353-.519-.486 0-.947.18-1.352.519C10.683 2.216 8.678.5 6.28.5 3.648.5 1.485 2.521 1.271 5.083H.417a.417.417 0 100 .834h.854C1.485 8.479 3.648 10.5 6.28 10.5c2.695 0 4.89-2.17 4.963-4.863.355-.535.798-.832 1.257-.832.46 0 .902.297 1.257.832.074 2.693 2.296 4.863 5.023 4.863 2.74 0 4.97-2.243 4.97-5h.833a.417.417 0 100-.833zm-18.303 5c-2.314 0-4.197-1.87-4.197-4.167 0-2.297 1.883-4.167 4.197-4.167 2.32 0 4.137 1.83 4.137 4.167 0 2.336-1.817 4.167-4.137 4.167zm12.5 0c-2.314 0-4.197-1.87-4.197-4.167 0-2.297 1.883-4.167 4.197-4.167 2.32 0 4.137 1.83 4.137 4.167 0 2.336-1.817 4.167-4.137 4.167z"/></symbol><symbol viewBox="0 0 25 23" id="heart" xmlns="http://www.w3.org/2000/svg"><path d="M12.5 22.61c-.356 0-.7-.13-.966-.364a288.72 288.72 0 00-2.843-2.445l-.005-.004c-2.518-2.146-4.693-4-6.206-5.826C.788 11.931 0 9.995 0 7.881c0-2.055.704-3.95 1.983-5.337 1.294-1.404 3.07-2.177 5-2.177 1.444 0 2.766.456 3.929 1.356A8.035 8.035 0 0112.5 3.381a8.038 8.038 0 011.588-1.658c1.164-.9 2.485-1.356 3.928-1.356 1.93 0 3.707.773 5 2.177C24.297 3.93 25 5.826 25 7.88c0 2.115-.788 4.05-2.48 6.091-1.513 1.826-3.687 3.68-6.206 5.826-.86.733-1.835 1.564-2.848 2.45-.267.233-.61.362-.966.362zM6.984 1.831c-1.517 0-2.91.605-3.924 1.704-1.03 1.116-1.596 2.66-1.596 4.344 0 1.779.661 3.369 2.143 5.157 1.432 1.728 3.563 3.544 6.03 5.646l.004.003c.862.735 1.84 1.569 2.857 2.458a343.667 343.667 0 012.866-2.462c2.467-2.102 4.597-3.917 6.03-5.645 1.48-1.788 2.142-3.378 2.142-5.157 0-1.685-.567-3.228-1.596-4.344a5.274 5.274 0 00-3.924-1.704c-1.111 0-2.131.353-3.032 1.05-.803.62-1.362 1.406-1.69 1.955a.917.917 0 01-.794.451.917.917 0 01-.794-.451c-.328-.55-.887-1.335-1.69-1.956-.9-.696-1.921-1.05-3.032-1.05z"/></symbol><symbol viewBox="0 0 32 32" id="inst" xmlns="http://www.w3.org/2000/svg"><path fill-rule="evenodd" clip-rule="evenodd" d="M16 32c8.837 0 16-7.163 16-16S24.837 0 16 0 0 7.163 0 16s7.163 16 16 16zM11.872 7h8.256A4.878 4.878 0 0125 11.872v8.256A4.878 4.878 0 0120.128 25h-8.256A4.878 4.878 0 017 20.128v-8.256A4.878 4.878 0 0111.872 7zm8.256 16.945a3.821 3.821 0 003.817-3.817v-8.256a3.821 3.821 0 00-3.817-3.817h-8.256a3.821 3.821 0 00-3.817 3.817v8.256a3.821 3.821 0 003.817 3.817h8.256zM16 11.078A4.927 4.927 0 0011.078 16 4.927 4.927 0 0016 20.922 4.927 4.927 0 0020.922 16 4.927 4.927 0 0016 11.078zm0 8.788A3.87 3.87 0 0112.133 16 3.871 3.871 0 0116 12.133 3.87 3.87 0 0119.866 16 3.87 3.87 0 0116 19.866zm3.585-9.081c0-.802.652-1.455 1.454-1.455.802 0 1.455.653 1.455 1.455s-.653 1.454-1.455 1.454a1.456 1.456 0 01-1.454-1.454zm1.055 0a.4.4 0 10.8-.001.4.4 0 00-.8 0z"/></symbol><symbol viewBox="0 0 20 14" id="mail" xmlns="http://www.w3.org/2000/svg"><path d="M18.242.148H1.758A1.76 1.76 0 000 1.906v10.187c0 .97.789 1.758 1.758 1.758h16.484A1.76 1.76 0 0020 12.093V1.906A1.76 1.76 0 0018.242.148zm-.23 1.172l-.234.196-7.08 5.896a1.09 1.09 0 01-1.395 0L2.222 1.516l-.235-.196h16.026zm-16.84.846l5.77 4.804-5.77 3.84V2.166zm17.07 10.513H1.758a.587.587 0 01-.574-.47L7.88 7.754l.672.56a2.257 2.257 0 002.894 0l.672-.56 6.697 4.457a.587.587 0 01-.574.469zm.586-1.87l-5.77-3.839 5.77-4.804v8.644z"/></symbol><symbol viewBox="0 0 20 20" id="mobile" xmlns="http://www.w3.org/2000/svg"><g filter="url(#ata)"><path d="M14.46 19.46H5.54a1.081 1.081 0 01-1.08-1.082V1.622A1.081 1.081 0 015.54.54h8.92a1.081 1.081 0 011.08 1.08v16.757a1.08 1.08 0 01-1.08 1.081zM5.54 1.08a.54.54 0 00-.54.54v16.757a.54.54 0 00.54.54h8.92a.54.54 0 00.54-.54V1.622a.54.54 0 00-.54-.54H5.54z"/><path d="M15.27 3.513H4.73a.27.27 0 110-.54h10.54a.27.27 0 010 .54zm0 12.433H4.73a.27.27 0 110-.54h10.54a.27.27 0 010 .54zM10 18.43a.997.997 0 110-1.995.997.997 0 010 1.994zm0-1.453a.457.457 0 100 .913.457.457 0 000-.913zm1.081-14.612H8.92a.27.27 0 110-.54h2.162a.27.27 0 010 .54z"/></g><defs><filter id="ata" x=".459" y=".541" width="19.081" height="26.919" filterUnits="userSpaceOnUse" color-interpolation-filters="sRGB"><feFlood flood-opacity="0" result="BackgroundImageFix"/><feColorMatrix in="SourceAlpha" values="0 0 0 0 0 0 0 0 0 0 0 0 0 0 0 0 0 0 127 0"/><feOffset dy="4"/><feGaussianBlur stdDeviation="2"/><feColorMatrix values="0 0 0 0 0 0 0 0 0 0 0 0 0 0 0 0 0 0 0.25 0"/><feBlend in2="BackgroundImageFix" result="effect1_dropShadow"/><feBlend in="SourceGraphic" in2="effect1_dropShadow" result="shape"/></filter></defs></symbol><symbol viewBox="0 0 18 18" id="palette" xmlns="http://www.w3.org/2000/svg"><g clip-path="url(#aua)"><path d="M17.51.54a.97.97 0 00-1.303-.045L8.85 6.79c-1.775 1.523-6.122 6.603-6.306 6.819a.3.3 0 00.015.406l1.2 1.2a.3.3 0 00.395.024c.242-.188 5.936-4.625 8.077-7.134l5.303-6.213A.969.969 0 0017.51.541zm-.422.953l-5.312 6.223c-1.875 2.197-6.717 6.05-7.78 6.886l-.815-.814c.856-.994 4.521-5.222 6.06-6.543L16.594.953a.37.37 0 01.495.014.375.375 0 01-.001.526z"/><path d="M4.185 14.633l-1.028-1.04a.3.3 0 00-.327-.067l-.242.099a4.02 4.02 0 00-2.513 3.751v.324a.3.3 0 00.3.3 4.014 4.014 0 003.859-2.979l.027-.099a.3.3 0 00-.076-.29zm-3.51 2.753v-.01a3.424 3.424 0 012.139-3.196l.057-.024.766.775a3.415 3.415 0 01-2.963 2.455zM7.18 8.795l-.423.424 1.798 1.798.424-.424-1.798-1.798zm-.899.9l-.424.424 1.799 1.798.423-.424-1.798-1.798z"/><path d="M17.896 9.909a12.194 12.194 0 00-2.883-5.6l-.443.404a11.584 11.584 0 012.74 5.317.9.9 0 01-1.322.96l-.616-.338a1.449 1.449 0 00-1.718.238 1.448 1.448 0 00-.277 1.704l1.226 2.398a1.5 1.5 0 01-.834 2.096c-2.704.882-6.25-.141-9.035-2.61l-.398.449c2.23 1.976 4.939 3.07 7.387 3.07.78 0 1.535-.111 2.238-.34a2.101 2.101 0 001.176-2.938l-1.228-2.4a.849.849 0 01.165-1.002.848.848 0 011.008-.14l.616.337a1.5 1.5 0 002.198-1.605zM1.838 1.779C-.845 4.465-.414 9.459 2.841 13.395l.462-.382C.246 9.316-.2 4.668 2.262 2.203 4.79-.322 9.667.25 13.365 3.507l.396-.45c-4-3.522-9.126-4.072-11.923-1.278z"/><path d="M9.666 1.814a1.5 1.5 0 00-1.498 1.498 1.5 1.5 0 001.498 1.5 1.5 1.5 0 001.5-1.5 1.5 1.5 0 00-1.5-1.498zm0 2.398a.9.9 0 010-1.799.9.9 0 010 1.799zM5.77 1.214a1.5 1.5 0 00-1.5 1.499 1.5 1.5 0 001.5 1.499 1.5 1.5 0 001.499-1.5 1.5 1.5 0 00-1.5-1.498zm0 2.398a.9.9 0 010-1.798.9.9 0 010 1.798zm-2.698.3a1.5 1.5 0 00-1.499 1.499 1.5 1.5 0 001.5 1.498A1.5 1.5 0 004.57 5.411a1.5 1.5 0 00-1.499-1.499zm0 2.398a.9.9 0 010-1.799.9.9 0 010 1.799zm.6 1.199a1.5 1.5 0 00-1.499 1.499 1.5 1.5 0 001.499 1.498A1.5 1.5 0 005.17 9.008a1.5 1.5 0 00-1.498-1.5zm0 2.398a.9.9 0 010-1.799.9.9 0 010 1.799zm5.095 2.997a1.5 1.5 0 00-1.499 1.499 1.5 1.5 0 001.5 1.498 1.5 1.5 0 001.498-1.498 1.5 1.5 0 00-1.499-1.499zm0 2.398a.9.9 0 010-1.798.9.9 0 010 1.798zm5.545-8.092a1.35 1.35 0 00-1.348 1.348 1.35 1.35 0 001.348 1.349 1.35 1.35 0 001.35-1.35 1.35 1.35 0 00-1.35-1.348zm0 2.097a.75.75 0 11.002-1.5.75.75 0 01-.002 1.5z"/></g><defs><clipPath id="aua"><path d="M0 0h18v18H0z"/></clipPath></defs></symbol><symbol viewBox="0 0 20 20" id="phone" xmlns="http://www.w3.org/2000/svg"><path d="M4.075 13.295a21.218 21.218 0 007.058 5.528c1.032.49 2.412 1.07 3.95 1.169.095.004.186.008.281.008 1.032 0 1.86-.356 2.536-1.09a.069.069 0 00.017-.02c.24-.29.514-.552.8-.83.195-.186.393-.38.584-.58.883-.92.883-2.088-.008-2.98l-2.49-2.49c-.424-.44-.93-.671-1.46-.671-.53 0-1.04.232-1.475.667l-1.484 1.483a7.933 7.933 0 00-.41-.215 5.138 5.138 0 01-.456-.249c-1.35-.858-2.577-1.976-3.75-3.415-.593-.75-.99-1.38-1.268-2.022.39-.352.754-.721 1.106-1.082.125-.128.253-.257.381-.385.448-.448.688-.966.688-1.492s-.236-1.044-.688-1.492L6.752 1.902c-.145-.145-.281-.286-.422-.43-.274-.283-.56-.573-.841-.834C5.062.22 4.56 0 4.029 0c-.526 0-1.031.22-1.475.642l-1.55 1.55a3.185 3.185 0 00-.949 2.04c-.078.99.104 2.042.576 3.315.726 1.968 1.82 3.796 3.444 5.748zM1.067 4.318c.05-.55.26-1.01.659-1.409l1.541-1.541c.24-.232.506-.353.763-.353.253 0 .51.12.746.36.277.258.538.527.82.813.141.145.286.29.431.44l1.235 1.234c.257.257.39.518.39.775s-.133.518-.39.775l-.385.39c-.386.39-.746.758-1.144 1.11l-.02.021c-.345.344-.29.672-.208.92.004.013.008.021.013.033.319.767.762 1.497 1.454 2.367 1.243 1.533 2.553 2.723 3.995 3.638.178.117.369.208.547.299.166.083.32.161.456.248l.046.025c.136.07.269.104.402.104.331 0 .547-.211.617-.282l1.55-1.55c.24-.24.501-.369.758-.369.315 0 .572.195.734.37l2.499 2.494c.497.497.493 1.036-.012 1.562a13.68 13.68 0 01-.552.552c-.29.281-.592.572-.866.899-.476.514-1.044.754-1.778.754a3.86 3.86 0 01-.215-.008c-1.36-.087-2.623-.618-3.572-1.07a20.157 20.157 0 01-6.718-5.263c-1.546-1.86-2.586-3.593-3.274-5.45C1.162 6.068 1 5.152 1.067 4.319z"/></symbol><symbol viewBox="0 0 20 14" id="placemats" xmlns="http://www.w3.org/2000/svg"><path d="M19.968 7.62a.317.317 0 00-.285-.18H9.116l2.037-2.083a.32.32 0 00.044-.057.308.308 0 00.034-.034 3.214 3.214 0 00.727-2.034A3.212 3.212 0 008.75.023c-.833 0-1.617.316-2.216.89l-.006.005-.005.005-.042.04a.348.348 0 00-.018.02L1.29 6.153a4.413 4.413 0 000 6.233 5.45 5.45 0 004.015 1.588H12.3a.317.317 0 000-.635h-7a4.745 4.745 0 01-3.561-1.402 3.777 3.777 0 010-5.336 2.963 2.963 0 012.966-.733L3.077 7.375a1.98 1.98 0 00-.706 1.52c0 .532.207 1.032.584 1.409a2.396 2.396 0 001.705.706c.644 0 1.25-.25 1.705-.706.116-.116.22-.24.312-.37l1.818-1.859H19.03l-4.136 5.264H12.3a.317.317 0 100 .635h2.748c.098 0 .19-.045.25-.122l4.634-5.898a.317.317 0 00.036-.335zM5.334 6.147c.177.106.344.23.498.373l-.777.763a1.639 1.639 0 00-.663-.263l.942-.873zm.855 3.378a.317.317 0 00-.057.08c-.066.087-.137.17-.216.249-.335.335-.782.52-1.256.52a1.77 1.77 0 01-1.257-.52 1.349 1.349 0 01-.397-.96c0-.363.141-.704.398-.96.193-.194.45-.3.723-.3.273 0 .53.106.723.3l.012.01.011.01.014.01.012.01.014.008.013.008.015.007.013.006.017.005.013.005.016.004.014.003c.005.002.01.002.016.003l.014.002h.018l.012.001.03-.001h.004a.31.31 0 00.027-.004l.009-.003.02-.005c.004 0 .008-.002.011-.003l.018-.007L5.205 8l.016-.008.012-.007.015-.008.012-.009.014-.01.01-.01.013-.01.944-.928c.227.362.35.781.349 1.22 0 .47-.14.918-.4 1.297zM7.212 8.48a2.93 2.93 0 00-.707-2.176l-.001-.001a3.566 3.566 0 00-2.677-1.201c-.22 0-.436.02-.647.058l3.792-3.788A2.556 2.556 0 018.75.658a2.576 2.576 0 011.965 4.241l-.015.014L7.212 8.48z"/></symbol><symbol viewBox="0 0 24 22" id="rate-star" xmlns="http://www.w3.org/2000/svg"><path d="M11.027.927c.299-.921 1.602-.921 1.902 0L14.9 6.998a1 1 0 00.951.691h6.384c.969 0 1.372 1.24.588 1.81l-5.165 3.752a1 1 0 00-.363 1.118l1.973 6.07c.3.922-.755 1.688-1.54 1.119l-5.164-3.752a1 1 0 00-1.175 0l-5.165 3.752c-.783.57-1.838-.197-1.539-1.118l1.973-6.071a1 1 0 00-.363-1.118L1.13 9.498c-.783-.57-.38-1.809.588-1.809h6.384a1 1 0 00.95-.69L11.027.926z"/></symbol><symbol viewBox="0 0 18 20" id="response" xmlns="http://www.w3.org/2000/svg"><path d="M17.34 14.162l-5.581 5.589a.848.848 0 11-1.201-1.2l4.144-4.149H6.205A5.804 5.804 0 01.412 8.626V.848a.847.847 0 111.696 0v7.775a4.104 4.104 0 004.097 4.083h8.48l-4.128-4.133a.849.849 0 011.2-1.2l5.582 5.59a.848.848 0 010 1.2z"/></symbol><symbol viewBox="0 0 42 16" id="right-arrow" xmlns="http://www.w3.org/2000/svg"><path d="M41.506 8.707a1 1 0 000-1.414L35.142.929a1 1 0 00-1.415 1.414L39.385 8l-5.657 5.657a1 1 0 001.415 1.414l6.364-6.364zM.627 9h40.172V7H.627v2z"/></symbol><symbol viewBox="0 0 18 18" id="search" xmlns="http://www.w3.org/2000/svg"><g clip-path="url(#baa)"><path d="M7.927 0C3.557 0 0 3.556 0 7.927c0 4.37 3.556 7.927 7.927 7.927 4.37 0 7.927-3.556 7.927-7.927C15.854 3.557 12.298 0 7.927 0zm0 14.39a6.47 6.47 0 01-6.464-6.463 6.47 6.47 0 016.464-6.464 6.47 6.47 0 016.463 6.464 6.47 6.47 0 01-6.463 6.463z"/><path d="M17.786 16.751l-4.195-4.195a.731.731 0 10-1.035 1.035l4.195 4.195a.73.73 0 001.035 0 .731.731 0 000-1.035z"/></g><defs><clipPath id="baa"><path d="M0 0h18v18H0z"/></clipPath></defs></symbol><symbol viewBox="0 0 20 20" id="share" xmlns="http://www.w3.org/2000/svg"><path d="M19.372 8.48L11.414.521c-.346-.347-.7-.522-1.05-.522-.488 0-1.057.365-1.057 1.394V6.3a9.932 9.932 0 00-6.415 2.943A9.938 9.938 0 000 16.276c0 1.142.192 2.263.57 3.333a.586.586 0 001.105 0 8.861 8.861 0 017.632-5.858v4.855c0 1.029.57 1.394 1.057 1.394.35 0 .704-.175 1.05-.521l7.958-7.958c.405-.405.628-.945.628-1.521s-.223-1.116-.628-1.52zm-.829 2.212l-7.957 7.958a1.413 1.413 0 01-.1.091 1.3 1.3 0 01-.007-.135V13.14a.586.586 0 00-.586-.586h-.006a9.93 9.93 0 00-5.763 1.907 9.993 9.993 0 00-2.845 3.194 8.891 8.891 0 01-.107-1.378c0-4.814 3.915-8.773 8.728-8.827a.586.586 0 00.58-.586v-5.47c0-.052.002-.097.005-.134.03.024.063.054.1.091l7.958 7.958c.184.184.285.43.285.692a.972.972 0 01-.285.692z"/></symbol><symbol viewBox="0 0 25 25" id="star" xmlns="http://www.w3.org/2000/svg"><path d="M24.457 11.38c.492-.48.666-1.184.454-1.838a1.782 1.782 0 00-1.448-1.22l-6.053-.88a.79.79 0 01-.596-.433l-2.706-5.485a1.78 1.78 0 00-1.608-1 1.78 1.78 0 00-1.607 1L8.186 7.009a.792.792 0 01-.596.433l-6.054.88A1.78 1.78 0 00.09 9.542a1.782 1.782 0 00.454 1.837l4.38 4.27a.793.793 0 01.228.7l-1.034 6.03a1.781 1.781 0 00.713 1.752 1.778 1.778 0 001.888.137l5.414-2.846a.792.792 0 01.736 0l5.414 2.846a1.786 1.786 0 001.888-.137 1.781 1.781 0 00.714-1.753L19.85 16.35a.792.792 0 01.229-.7l4.38-4.27zm-5.594 5.14l1.034 6.027a.778.778 0 01-.315.775.78.78 0 01-.834.06l-5.414-2.847a1.8 1.8 0 00-1.669 0l-5.413 2.847a.78.78 0 01-.834-.06.778.778 0 01-.314-.775l1.033-6.028a1.793 1.793 0 00-.515-1.587l-4.38-4.27a.776.776 0 01-.2-.81.777.777 0 01.638-.54l6.053-.88a1.79 1.79 0 001.35-.98l2.707-5.485a.777.777 0 01.71-.441c.308 0 .573.164.71.44l2.706 5.486c.261.53.766.896 1.35.98l6.053.88a.777.777 0 01.64.54.777.777 0 01-.201.81l-4.38 4.27a1.792 1.792 0 00-.515 1.587z"/></symbol><symbol viewBox="0 0 16 20" id="stationery" xmlns="http://www.w3.org/2000/svg"><path d="M2.372 8.873a.572.572 0 00-.571.572v7.393a3.281 3.281 0 00-.885 2.252v.053c0 .158.128.285.286.285h11.815a.286.286 0 00.286-.285v-.053a3.28 3.28 0 00-.916-2.284V9.445a.572.572 0 00-.458-.56l2.683-4.162c.01-.014.012-.032.019-.048.007-.018.018-.036.021-.055l.002-.003.426-2.47a.286.286 0 00-.444-.284l-2.021 1.396c-.012.008-.02.021-.03.031-.015.014-.032.026-.045.044 0 .002 0 .004-.002.006l-.004.004-3.416 5.53h-.15V3.055h.446v2.427a.286.286 0 10.571 0V2.77a.286.286 0 00-.286-.285h-.732V1.32a.75.75 0 00-.75-.75h-.803a.75.75 0 00-.749.75v7.552h-.443L4.575 1.571a.286.286 0 00-.341-.216l-2.806.635a.286.286 0 00-.216.342l1.339 5.923v.002l.14.616h-.319zm.67.572H6.94l.012.002.012-.002H8.67l.012.002.012-.003h3.122v7.224H2.372V9.445h.67zm9.68 9.412H1.497c.05-.605.3-1.169.715-1.618h9.795c.414.45.664 1.013.715 1.618zm1.444-14.772l-.882-.594 1.117-.771-.236 1.365zm-1.302-.188l1.116.752-2.724 4.224H9.79l3.075-4.976zm-5.45-2.754h.804c.098 0 .178.08.178.178v1.164h-1.16V1.32c0-.098.08-.178.178-.178zm-.177 1.913h1.159v5.817h-1.16V3.056zM3.17 8.409l.365-.083a.286.286 0 00-.126-.557l-.365.082-.227-1.004.366-.083a.286.286 0 00-.126-.557l-.366.082-.227-1.004.366-.083a.286.286 0 10-.126-.557l-.366.082-.227-1.004.366-.082a.286.286 0 00-.126-.558l-.365.083-.154-.682 2.248-.508 1.555 6.897h-2.36l-.105-.464z"/></symbol><symbol viewBox="0 0 8 27" id="up-arrow" xmlns="http://www.w3.org/2000/svg"><path d="M4.354.646a.5.5 0 00-.708 0L.464 3.828a.5.5 0 10.708.708L4 1.707l2.828 2.829a.5.5 0 10.708-.708L4.354.646zM4.5 27V1h-1v26h1z"/></symbol><symbol viewBox="0 0 25 25" id="user" xmlns="http://www.w3.org/2000/svg"><path d="M12.5 12.532C5.912 12.532.552 17.892.552 24.48a.52.52 0 001.039 0c0-6.015 4.893-10.909 10.91-10.909 6.015 0 10.908 4.894 10.908 10.91a.52.52 0 001.04 0c0-6.59-5.36-11.949-11.949-11.949zM12.5 0a5.721 5.721 0 00-5.714 5.714A5.721 5.721 0 0012.5 11.43a5.721 5.721 0 005.714-5.715A5.721 5.721 0 0012.5 0zm0 10.39a4.681 4.681 0 01-4.675-4.676A4.681 4.681 0 0112.5 1.04a4.681 4.681 0 014.675 4.675A4.681 4.681 0 0112.5 10.39z"/></symbol><symbol viewBox="0 0 32 32" id="vk" xmlns="http://www.w3.org/2000/svg"><path fill-rule="evenodd" clip-rule="evenodd" d="M16 32c8.837 0 16-7.163 16-16S24.837 0 16 0 0 7.163 0 16s7.163 16 16 16zM7.58 11.801l2.421-.001.055.01s.304.032.623.256c.34.24.417.532.417.532l.01.028.01.03s.413 1.31.854 2.04c.477.788.823 1.153.974 1.258 0-.003.001-.004.002-.005 0 0 .002-.002.002-.005.036-.13.062-.342.072-.552.02-.421-.018-.829-.018-.829L13 14.527v-.037s.004-.149-.018-.333c-.016-.139-.066-.287-.086-.348l-.009-.028v-.002a.627.627 0 00-.176-.126 1.03 1.03 0 00-.174-.063.648.648 0 01-.44-.256.67.67 0 01-.104-.534.605.605 0 01.19-.342l.03-.03a1.71 1.71 0 01.525-.365l.004-.003.006-.003c.534-.238 1.135-.267 2.058-.258.724.007 1.026.062 1.305.127h.002c.268.062.537.169.745.386.208.218.3.5.335.755.046.328.036.667.022 1.098-.007.237-.015.502-.015.807l-.002.256c-.003.224-.006.439.013.605a.838.838 0 00.042.195l.008-.004.013-.007c.174-.098.57-.44 1.103-1.304.453-.732.893-2.155.893-2.155l.018-.064.033-.057s.107-.27.45-.466c.138-.079.436-.157.623-.157l.762-.005a437.561 437.561 0 011.843-.01c.184-.001.382-.002.602.039a1.1 1.1 0 01.417.157c.15.097.304.28.36.486.077.276.036.47-.015.702-.052.233-.137.49-.258.772a8.793 8.793 0 01-1.173 1.934c-.223.283-.42.526-.588.735-.157.194-.29.358-.396.495-.21.274-.29.44-.297.46l.002.001c.006.002.011.003.041.04.095.117.336.339.688.651 1.364 1.212 1.706 1.707 1.777 1.819.192.306.293.653.214.984a1.105 1.105 0 01-.509.673c-.393.24-.775.25-.775.25l-.027.002h-2.494s-.756.028-1.453-.434a9.464 9.464 0 01-.89-.69c-.14-.117-.272-.229-.397-.326a2.629 2.629 0 00-.456-.298.418.418 0 00-.09-.032c-.005 0-.006-.004-.008-.004-.003 0-.004.017-.028.119-.039.162-.046.454-.046.754 0 .28-.216.639-.468.77-.251.13-.478.141-.732.141h-.772c-1.49 0-3.16-.54-4.724-2.173-2.216-2.314-3.974-6.621-3.997-6.678v-.001s-.064-.124-.092-.289a.862.862 0 01.189-.723h.001l.001-.002a.882.882 0 01.63-.314l.038-.005c.168-.022.306-.014.306-.014zm2.303 1.207A4.036 4.036 0 019.862 13l-2.096.001c.239.546 1.826 4.139 3.605 5.997 1.368 1.43 2.637 1.802 3.857 1.802h.784l.01-.001v-.096c.001-.204.002-.41.056-.644.09-.375.365-.848.862-.997.343-.103.67-.02.927.096.257.117.48.275.697.444.17.132.337.272.5.407.254.213.496.415.71.555h.002l.001.002c.331.22.778.234.778.234h2.432a6.5 6.5 0 00.172-.052c-.003-.006-.003-.005-.003-.004 0 .003 0 .009-.013-.013v-.001l-.001-.001c-.024-.04-.25-.398-1.557-1.56l-.125-.11c-.289-.255-.514-.453-.7-.684-.212-.262-.367-.677-.286-1.044.081-.367.276-.621.524-.943.124-.162.268-.34.433-.543.163-.202.348-.431.556-.696a7.678 7.678 0 001.014-1.665 3.21 3.21 0 00.162-.475c-.027 0-.05-.002-.074-.003a2.514 2.514 0 00-.17-.006c-.233 0-.959.005-1.576.01l-.948.005h-.01c0-.001 0-.002-.005-.002l-.01.007-.003.01c-.05.175-.397 1.387-.969 2.314-.591.96-1.071 1.46-1.54 1.721-.468.261-.964.206-1.224.045-.456-.283-.574-.765-.616-1.143a5.767 5.767 0 01-.021-.784 9.62 9.62 0 00.003-.21c0-.37.006-.688.011-.952.008-.382.013-.648-.006-.786a.633.633 0 00-.018-.092.612.612 0 00-.145-.047l-.023-.005c-.25-.058-.367-.085-1.025-.091a3.34 3.34 0 00-.767.064l-.174.03c.235.33.29.66.321.924.03.262.026.457.025.48v.004c.005.054.042.456.02.945a3.734 3.734 0 01-.113.81c-.074.273-.181.6-.565.8-.287.15-.851.179-1.271-.109-.42-.288-.805-.77-1.327-1.631-.566-.937-.931-2.183-.954-2.262v-.002l-.008-.008-.002-.001a3.536 3.536 0 00-.096-.036zm.097.034c.002 0 .004.002.006.004l-.019-.044.013.04zm.006.004l.002.001-.002-.001zm5.998.089v.001-.001zm4.384-.124v.002c.004-.002.004-.001.004 0l.001-.001h-.005z"/></symbol></svg>