<svg width="43" height="43" fill="none" xmlns="http://www.w3.org/2000/svg"><g clip-path="url(#clip0)"><path d="M15.767 27.677L17.95 15.39h3.412l-2.115 12.286h-3.481z" fill="#3C58BF"/><path d="M15.767 27.677l2.798-12.286h2.798l-2.115 12.286h-3.481z" fill="#293688"/><path d="M31.602 15.527c-.683-.272-1.775-.546-3.14-.546-3.413 0-5.87 1.707-5.87 4.164 0 1.843 1.706 2.798 3.072 3.413 1.364.614 1.774 1.023 1.774 1.57 0 .819-1.092 1.228-2.048 1.228-1.365 0-2.115-.205-3.276-.683l-.477-.204-.478 2.798c.819.341 2.32.683 3.89.683 3.618 0 6.006-1.707 6.006-4.3 0-1.434-.887-2.526-2.934-3.413-1.229-.614-1.98-.956-1.98-1.57 0-.546.615-1.092 1.98-1.092 1.16 0 1.979.205 2.593.478l.341.136.547-2.662z" fill="#3C58BF"/><path d="M31.602 15.527c-.683-.272-1.775-.546-3.14-.546-3.413 0-5.256 1.707-5.256 4.164 0 1.843 1.092 2.798 2.457 3.413 1.366.614 1.775 1.023 1.775 1.57 0 .819-1.092 1.228-2.048 1.228-1.365 0-2.115-.205-3.276-.683l-.477-.204-.478 2.798c.819.341 2.32.683 3.89.683 3.618 0 6.006-1.707 6.006-4.3 0-1.434-.887-2.526-2.934-3.413-1.229-.614-1.98-.956-1.98-1.57 0-.546.615-1.092 1.98-1.092 1.16 0 1.979.205 2.593.478l.341.136.547-2.662z" fill="#293688"/><path d="M37.471 15.391c-.819 0-1.433.068-1.774.887l-5.12 11.399h3.686l.683-2.048h4.368l.41 2.048H43L40.133 15.39h-2.662zm-1.57 8.19c.205-.614 1.366-3.617 1.366-3.617s.273-.75.477-1.228l.205 1.16s.683 3.071.82 3.754h-2.867v-.068z" fill="#3C58BF"/><path d="M38.29 15.391c-.819 0-1.433.068-1.774.887l-5.938 11.399h3.686l.682-2.048h4.368l.41 2.048H43L40.133 15.39H38.29zm-2.388 8.19c.273-.682 1.365-3.617 1.365-3.617s.273-.75.477-1.228l.205 1.16s.683 3.071.82 3.754h-2.867v-.068z" fill="#293688"/><path d="M9.487 23.991l-.34-1.774c-.615-2.048-2.595-4.3-4.779-5.392l3.072 10.92h3.685l5.529-12.286h-3.686l-3.48 8.532z" fill="#3C58BF"/><path d="M9.487 23.991l-.34-1.774c-.615-2.048-2.595-4.3-4.779-5.392l3.072 10.92h3.685l5.529-12.286h-3.003l-4.164 8.532z" fill="#293688"/><path d="M0 15.391l.614.137c4.369 1.023 7.372 3.617 8.532 6.688l-1.229-5.801c-.204-.82-.819-1.024-1.57-1.024H0z" fill="#FFBC00"/><path d="M0 15.391c4.368 1.024 7.986 3.686 9.146 6.757l-1.16-4.846a1.666 1.666 0 00-1.638-1.297L0 15.391z" fill="#F7981D"/><path d="M0 15.391c4.368 1.024 7.986 3.686 9.146 6.757l-.819-2.662c-.205-.819-.478-1.638-1.433-1.979L0 15.391z" fill="#ED7C00"/><path d="M12.9 23.582l-2.32-2.32-1.093 2.593-.273-1.707c-.614-2.047-2.593-4.3-4.777-5.392l3.071 10.921h3.686l1.706-4.095zm6.348 4.095l-2.935-3.003-.546 3.003h3.48zm7.849-4.232c.273.273.41.478.341.751 0 .82-1.092 1.229-2.048 1.229-1.365 0-2.115-.205-3.276-.683l-.477-.205-.478 2.799c.819.341 2.32.682 3.89.682 2.184 0 3.959-.614 4.983-1.706l-2.935-2.867zm3.958 4.232h3.209l.682-2.047h4.368l.41 2.047H43l-1.16-4.982-4.096-3.96.205 1.093s.683 3.071.82 3.754h-2.867c.273-.683 1.365-3.618 1.365-3.618s.273-.75.477-1.228" fill="#051244"/></g><defs><clipPath id="clip0"><path fill="#fff" d="M0 0h43v43H0z"/></clipPath></defs></svg>