<svg width="0" height="0" class="hidden">
  <symbol fill="none" xmlns="http://www.w3.org/2000/svg" viewBox="0 0 22 18" id="twitter">
    <path d="M6.91 18c8.303 0 12.845-6.927 12.845-12.923 0-.194 0-.39-.009-.585A9.228 9.228 0 0022 2.136a9.105 9.105 0 01-2.597.717 4.565 4.565 0 001.99-2.516c-.888.53-1.858.9-2.87 1.098a4.491 4.491 0 00-5.425-.897 4.537 4.537 0 00-1.985 2.134 4.579 4.579 0 00-.285 2.909 12.754 12.754 0 01-5.153-1.378A12.839 12.839 0 011.524.833a4.581 4.581 0 00-.492 3.312A4.554 4.554 0 002.923 6.9 4.545 4.545 0 01.88 6.335v.063a4.572 4.572 0 001.021 2.876A4.516 4.516 0 004.5 10.853a4.374 4.374 0 01-1.19.16c-.283 0-.565-.026-.844-.08.289.903.85 1.692 1.607 2.258a4.496 4.496 0 002.61.895 9.019 9.019 0 01-5.61 1.948A8.62 8.62 0 010 15.972 12.783 12.783 0 006.91 18z" fill="#23A6F0"></path>
  </symbol>
  <symbol fill="none" xmlns="http://www.w3.org/2000/svg" viewBox="0 0 72 55" id="message">
    <path fill-rule="evenodd" clip-rule="evenodd" d="M.225 7.127A9.19 9.19 0 013.388 2 8.898 8.898 0 019 0h54c2.039 0 4.018.705 5.612 2a9.19 9.19 0 013.163 5.127L36 29.397.225 7.128zM0 12.361v32.56l26.113-16.307L0 12.36zm30.424 18.943L.86 49.761a9.114 9.114 0 003.324 3.822A8.88 8.88 0 009 55h54a8.88 8.88 0 004.814-1.42 9.116 9.116 0 003.322-3.823L41.571 31.3 36 34.77l-5.576-3.47v.004zm15.462-2.686L72 44.921v-32.56L45.886 28.614v.004z" fill="#23A6F0"></path>
  </symbol>
  <symbol fill="none" xmlns="http://www.w3.org/2000/svg" viewBox="0 0 51 67" id="map">
    <path d="M25.5 0C11.417 0 0 11.307 0 25.256c0 4.665.922 9.482 3.567 12.955L25.5 67l21.933-28.79C49.836 35.058 51 29.482 51 25.257 51 11.307 39.583 0 25.5 0zm0 14.628c5.926 0 10.731 4.759 10.731 10.628S31.426 35.884 25.5 35.884s-10.73-4.76-10.73-10.628c0-5.87 4.804-10.628 10.73-10.628z" fill="#fff"></path>
  </symbol>
  <symbol fill="none" xmlns="http://www.w3.org/2000/svg" viewBox="0 0 72 72" id="call">
    <path d="M55.929 38.995a3.785 3.785 0 00-5.357 0l-6.039 6.038c-2.8-.833-8.023-2.727-11.334-6.038-3.311-3.311-5.206-8.536-6.039-11.335l6.039-6.039a3.784 3.784 0 000-5.357L18.045 1.111a3.784 3.784 0 00-5.357 0L2.414 11.385a7.571 7.571 0 00-2.22 5.436c.087 5.395 1.516 24.132 16.283 38.9C31.244 70.487 49.98 71.911 55.38 72.002h.106c2 0 3.89-.788 5.323-2.22l10.274-10.274a3.785 3.785 0 000-5.357L55.929 38.995zm-.481 25.427c-4.728-.08-20.904-1.348-33.614-14.062C9.082 37.608 7.847 21.375 7.77 16.742l7.596-7.596 9.796 9.797-4.898 4.898a3.789 3.789 0 00-1.03 3.455c.09.436 2.314 10.767 8.603 17.056 6.289 6.288 16.62 8.512 17.055 8.603a3.754 3.754 0 003.456-1.027l4.902-4.898 9.796 9.797-7.6 7.595z" fill="#23A6F0"></path>
  </symbol>
  <symbol fill="none" xmlns="http://www.w3.org/2000/svg" viewBox="0 0 33 32" id="circle_square">
    <path d="M1 11.5a11.5 11.5 0 1123 0 11.5 11.5 0 01-23 0z" fill="#23A6F0"></path>
    <path d="M26.116 9.917h3.009a.958.958 0 01.958.958v17.25a.958.958 0 01-.958.958h-17.25a.958.958 0 01-.958-.958v-3.01A13.328 13.328 0 019 24.696v3.43A2.875 2.875 0 0011.875 31h17.25A2.875 2.875 0 0032 28.125v-17.25A2.875 2.875 0 0029.125 8h-3.43c.185.621.325 1.261.42 1.917z" fill="#23A6F0"></path>
  </symbol>
  <symbol fill="none" xmlns="http://www.w3.org/2000/svg" viewBox="0 0 33 32" id="opinion">
    <g clip-path="url(#clip0)" fill-rule="evenodd" clip-rule="evenodd" fill="#23A6F0">
      <path d="M28.875 2.087H4.125a2.05 2.05 0 00-1.458.611 2.1 2.1 0 00-.604 1.476V20.87a2.1 2.1 0 00.604 1.476 2.05 2.05 0 001.458.611h5.156c.64 0 1.272.15 1.845.44.573.29 1.071.711 1.455 1.23l3.919 5.286 3.919-5.286c.384-.519.882-.94 1.455-1.23a4.086 4.086 0 011.845-.44h5.156a2.05 2.05 0 001.458-.611 2.1 2.1 0 00.605-1.476V4.174a2.1 2.1 0 00-.605-1.476 2.05 2.05 0 00-1.458-.611zM4.125 0a4.1 4.1 0 00-2.917 1.223A4.2 4.2 0 000 4.174V20.87a4.2 4.2 0 001.208 2.951 4.1 4.1 0 002.917 1.223h5.156a2.046 2.046 0 011.65.835l3.919 5.286a2.043 2.043 0 003.3 0l3.919-5.286a2.043 2.043 0 011.65-.835h5.156a4.1 4.1 0 002.917-1.223A4.2 4.2 0 0033 20.87V4.174a4.2 4.2 0 00-1.208-2.951A4.1 4.1 0 0028.875 0H4.125z"></path>
      <path d="M14.521 10.529a3.508 3.508 0 00-1.745-1.32 3.759 3.759 0 00-2.24-.072 3.55 3.55 0 00-1.837 1.205 3.177 3.177 0 00-.204 3.694 3.45 3.45 0 001.344 1.223 3.733 3.733 0 001.82.41 3.712 3.712 0 001.788-.518c-.278.777-.797 1.605-1.652 2.436a.807.807 0 00-.25.594.81.81 0 00.27.585.92.92 0 00.633.234.916.916 0 00.623-.254c3.16-3.076 2.75-6.42 1.45-8.213v-.004zm8.508 0a3.508 3.508 0 00-1.745-1.32 3.759 3.759 0 00-2.24-.072 3.55 3.55 0 00-1.837 1.205 3.193 3.193 0 00-.699 2c0 .597.171 1.182.495 1.695.323.513.788.935 1.344 1.222a3.732 3.732 0 001.82.41 3.712 3.712 0 001.788-.518c-.278.777-.797 1.605-1.652 2.436a.807.807 0 00-.25.594.81.81 0 00.27.585.92.92 0 00.633.234.916.916 0 00.623-.254c3.16-3.076 2.75-6.42 1.45-8.213v-.004z"></path>
    </g>
    <defs>
      <clipPath id="clip0">
        <path fill="#fff" transform="translate(.5)" d="M0 0h32v32H0z"></path>
      </clipPath>
    </defs>
  </symbol>
  <symbol fill="none" xmlns="http://www.w3.org/2000/svg" viewBox="0 0 20 20" id="star">
    <path d="M5.032 12.138l-1.367 5.918a.915.915 0 001.403.97l4.994-3.33 4.994 3.33a.918.918 0 001.392-1.015l-1.678-5.87 4.16-3.745a.918.918 0 00-.54-1.596l-5.23-.416-2.262-5.01a.915.915 0 00-1.672 0l-2.262 5.01-5.23.415a.917.917 0 00-.567 1.572l3.865 3.767zM7.649 8.17a.915.915 0 00.763-.538l1.65-3.651 1.65 3.651a.916.916 0 00.763.538l3.644.289-3 2.7a.919.919 0 00-.27.934L14 16.115l-3.427-2.285a.912.912 0 00-1.017 0l-3.581 2.388.963-4.17a.917.917 0 00-.253-.862L3.897 8.469l3.752-.3z" fill="#F3CD03"></path>
  </symbol>
  <symbol fill="none" xmlns="http://www.w3.org/2000/svg" viewBox="0 0 20 20" id="star-filled">
    <path d="M19.1711 7.41927C19.1134 7.24946 19.0073 7.10025 18.8658 6.99006C18.7243 6.87987 18.5537 6.81353 18.3749 6.79922L13.1458 6.38371L10.883 1.3747C10.8109 1.21337 10.6937 1.07634 10.5455 0.980156C10.3972 0.883971 10.2244 0.832739 10.0477 0.832642C9.87097 0.832545 9.69802 0.883587 9.5497 0.979609C9.40137 1.07563 9.28401 1.21253 9.21177 1.37378L6.94895 6.38371L1.7198 6.79922C1.54411 6.81314 1.37614 6.87738 1.23601 6.98425C1.09587 7.09113 0.989488 7.23612 0.929593 7.40187C0.869698 7.56762 0.858824 7.74712 0.898271 7.91889C0.937719 8.09066 1.02582 8.24743 1.15203 8.37044L5.01634 12.1375L3.64966 18.0555C3.60816 18.2347 3.62146 18.4221 3.68783 18.5936C3.7542 18.7651 3.87059 18.9127 4.02187 19.0172C4.17316 19.1217 4.35237 19.1783 4.53624 19.1797C4.72011 19.1811 4.90016 19.1272 5.05303 19.025L10.0474 15.6955L15.0417 19.025C15.1979 19.1288 15.3822 19.1822 15.5697 19.1781C15.7572 19.1739 15.9389 19.1125 16.0905 19.002C16.242 18.8916 16.3561 18.7373 16.4173 18.5601C16.4786 18.3828 16.4841 18.1911 16.4331 18.0106L14.7555 12.1403L18.9161 8.39612C19.1885 8.15031 19.2885 7.7669 19.1711 7.41927Z" fill="#F3CD03"/>
  </symbol>
  <symbol fill="none" xmlns="http://www.w3.org/2000/svg" viewBox="0 0 12 10" id="arrow-right">
    <path fill-rule="evenodd" clip-rule="evenodd" d="M0 5c0-.19.079-.371.22-.505a.77.77 0 01.53-.21h8.688l-3.22-3.064a.698.698 0 01-.22-.506c0-.19.08-.371.22-.506A.77.77 0 016.75 0c.2 0 .39.075.531.21l4.5 4.284A.713.713 0 0112 5a.685.685 0 01-.22.506L7.28 9.79a.77.77 0 01-.53.209.77.77 0 01-.532-.21.698.698 0 01-.22-.505c0-.19.08-.372.22-.506l3.22-3.065H.75a.77.77 0 01-.53-.209A.697.697 0 010 5z" fill="#fff"></path>
  </symbol>
  <symbol fill="none" xmlns="http://www.w3.org/2000/svg" viewBox="0 0 22 22" id="instagram">
    <path d="M11 0C8.015 0 7.64.014 6.467.066c-1.173.055-1.972.24-2.672.512a5.37 5.37 0 00-1.948 1.269 5.4 5.4 0 00-1.27 1.948C.305 4.494.12 5.294.066 6.463.014 7.638 0 8.013 0 11s.014 3.36.066 4.534c.055 1.171.24 1.97.512 2.67a5.403 5.403 0 001.269 1.948c.61.612 1.223.989 1.947 1.27.7.272 1.498.457 2.67.511C7.638 21.986 8.012 22 11 22c2.988 0 3.36-.014 4.535-.066 1.17-.055 1.971-.24 2.671-.512a5.386 5.386 0 001.947-1.269 5.404 5.404 0 001.27-1.948c.27-.7.456-1.499.511-2.67.052-1.173.066-1.547.066-4.535 0-2.988-.014-3.362-.066-4.536-.055-1.17-.24-1.97-.512-2.669a5.4 5.4 0 00-1.269-1.948 5.379 5.379 0 00-1.948-1.27C17.504.305 16.703.12 15.533.066 14.36.014 13.987 0 10.997 0h.004H11zm-.986 1.983h.987c2.937 0 3.285.01 4.444.063 1.073.048 1.656.228 2.044.378.512.2.88.439 1.265.824a3.4 3.4 0 01.822 1.265c.151.386.33.97.378 2.042.054 1.159.065 1.507.065 4.442 0 2.936-.011 3.285-.065 4.444-.048 1.073-.228 1.654-.378 2.042a3.4 3.4 0 01-.824 1.264c-.385.385-.75.623-1.265.822-.385.151-.968.33-2.042.38-1.159.052-1.507.064-4.444.064-2.937 0-3.286-.012-4.445-.065-1.072-.049-1.654-.228-2.042-.379a3.407 3.407 0 01-1.265-.822 3.41 3.41 0 01-.825-1.265c-.15-.387-.33-.97-.378-2.042-.052-1.16-.063-1.507-.063-4.445 0-2.938.01-3.284.063-4.443.05-1.073.228-1.656.38-2.043.199-.513.438-.88.823-1.265.385-.385.75-.623 1.265-.823.388-.15.97-.33 2.042-.38 1.015-.046 1.408-.06 3.458-.061v.003zm6.859 1.826a1.32 1.32 0 100 2.64 1.32 1.32 0 000-2.64zM11 5.35a5.65 5.65 0 10-.176 11.3A5.65 5.65 0 0011 5.35zm0 1.982a3.667 3.667 0 110 7.334 3.667 3.667 0 010-7.334z" fill="#23A6F0"></path>
  </symbol>
  <symbol fill="none" xmlns="http://www.w3.org/2000/svg" viewBox="0 0 23 23" id="facebook">
    <path fill-rule="evenodd" clip-rule="evenodd" d="M23 11.57C23 5.18 17.852 0 11.501 0 5.148.001 0 5.18 0 11.572 0 17.346 4.206 22.132 9.702 23v-8.085H6.784v-3.343h2.92V9.02c0-2.9 1.718-4.5 4.344-4.5 1.26 0 2.575.225 2.575.225v2.846h-1.45c-1.428 0-1.873.893-1.873 1.808v2.17h3.188l-.51 3.344h-2.68v8.085C18.794 22.13 23 17.344 23 11.57z" fill="#23A6F0"></path>
  </symbol>
  <symbol fill="none" xmlns="http://www.w3.org/2000/svg" viewBox="0 0 20 22" id="play">
    <path d="M18.54 12.703L3.428 21.727C2.146 22.492.5 21.565.5 20.023V1.976C.5.436 2.143-.493 3.428.275L18.54 9.298c.291.172.534.42.703.719a2.004 2.004 0 010 1.968 1.933 1.933 0 01-.703.718z" fill="#fff"></path>
  </symbol>
  <symbol fill="none" xmlns="http://www.w3.org/2000/svg" viewBox="0 0 48 38" id="group">
    <path fill-rule="evenodd" clip-rule="evenodd" d="M45.917 37.667s3.083 0 3.083-3.111c0-3.112-3.083-12.445-15.416-12.445-12.334 0-15.417 9.333-15.417 12.445 0 3.11 3.083 3.11 3.083 3.11h24.667zm-24.599-3.111H45.85a.894.894 0 00.043-.007l.025-.006c-.006-.821-.515-3.204-2.343-5.351-1.702-2.013-4.693-3.97-9.99-3.97-5.294 0-8.285 1.96-9.99 3.97-1.829 2.147-2.34 4.533-2.344 5.351l.068.013zm12.266-18.667a6.138 6.138 0 004.36-1.823 6.25 6.25 0 001.806-4.4 6.25 6.25 0 00-1.806-4.4 6.139 6.139 0 00-4.36-1.822 6.139 6.139 0 00-4.36 1.823 6.25 6.25 0 00-1.807 4.4c0 1.65.65 3.232 1.806 4.4a6.139 6.139 0 004.36 1.822zm9.25-6.222c0 1.225-.24 2.439-.705 3.571a9.338 9.338 0 01-2.005 3.028 9.246 9.246 0 01-3 2.024 9.18 9.18 0 01-7.08 0 9.247 9.247 0 01-3.001-2.024 9.338 9.338 0 01-2.005-3.028 9.405 9.405 0 01-.704-3.571c0-2.476.974-4.85 2.709-6.6a9.208 9.208 0 016.54-2.734c2.454 0 4.807.984 6.541 2.734a9.376 9.376 0 012.71 6.6zM21.053 22.982a17.99 17.99 0 00-3.793-.768c-.723-.07-1.45-.104-2.176-.103-12.334 0-15.417 9.333-15.417 12.445 0 2.075 1.027 3.11 3.083 3.11h13a7.015 7.015 0 01-.666-3.11c0-3.143 1.162-6.353 3.36-9.035a16.38 16.38 0 012.609-2.539zm-6.216 2.24c-5.143.062-8.063 1.991-9.743 3.97-1.841 2.159-2.344 4.551-2.344 5.364H12c0-3.252.996-6.49 2.837-9.334zm-10.545-14c0-2.475.975-4.85 2.71-6.6a9.208 9.208 0 016.54-2.733c2.453 0 4.806.983 6.54 2.733a9.376 9.376 0 012.71 6.6c0 2.476-.975 4.85-2.71 6.6a9.209 9.209 0 01-6.54 2.733 9.208 9.208 0 01-6.54-2.733 9.376 9.376 0 01-2.71-6.6zM13.542 5a6.139 6.139 0 00-4.36 1.822 6.25 6.25 0 00-1.807 4.4c0 1.65.65 3.233 1.806 4.4a6.139 6.139 0 004.361 1.822 6.139 6.139 0 004.36-1.822 6.25 6.25 0 001.807-4.4 6.25 6.25 0 00-1.806-4.4A6.139 6.139 0 0013.541 5z" fill="#23A6F0"></path>
  </symbol>
  <symbol fill="none" xmlns="http://www.w3.org/2000/svg" viewBox="0 0 16 11" id="checkbox">
    <path fill-rule="evenodd" clip-rule="evenodd" d="M15.7957 0.204347C15.8604 0.268958 15.9118 0.345714 15.9469 0.430218C15.9819 0.514722 16 0.605313 16 0.696803C16 0.788294 15.9819 0.878885 15.9469 0.963389C15.9118 1.04789 15.8604 1.12465 15.7957 1.18926L6.05781 10.9271C5.9932 10.9919 5.91645 11.0433 5.83194 11.0783C5.74744 11.1134 5.65685 11.1314 5.56536 11.1314C5.47387 11.1314 5.38328 11.1134 5.29877 11.0783C5.21427 11.0433 5.13751 10.9919 5.0729 10.9271L0.203982 6.05818C0.0733744 5.92757 0 5.75043 0 5.56572C0 5.38102 0.0733744 5.20387 0.203982 5.07327C0.33459 4.94266 0.511732 4.86928 0.696438 4.86928C0.881145 4.86928 1.05829 4.94266 1.1889 5.07327L5.56536 9.45112L14.8107 0.204347C14.8754 0.139572 14.9521 0.08818 15.0366 0.0531148C15.1211 0.0180496 15.2117 0 15.3032 0C15.3947 0 15.4853 0.0180496 15.5698 0.0531148C15.6543 0.08818 15.731 0.139572 15.7957 0.204347Z" fill="white"/>
  </symbol>
</svg>
